<?xml version="1.0" encoding="utf-8"?>
<!-- Generator: Adobe Illustrator 16.0.0, SVG Export Plug-In . SVG Version: 6.00 Build 0)  -->
<!DOCTYPE svg PUBLIC "-//W3C//DTD SVG 1.1//EN" "http://www.w3.org/Graphics/SVG/1.1/DTD/svg11.dtd">
<svg version="1.1" id="Layer_1" xmlns="http://www.w3.org/2000/svg" xmlns:xlink="http://www.w3.org/1999/xlink" x="0px" y="0px"
	 width="200px" height="269.591px" viewBox="0 0 200 269.591" enable-background="new 0 0 200 269.591" xml:space="preserve">
<g>
	<polygon fill="#263056" points="122.317,166.338 122.325,166.329 122.324,166.321 	"/>
	<path fill="#263056" d="M139.133,103.338c-0.027-0.02-0.053-0.041-0.077-0.062C139.08,103.297,139.107,103.318,139.133,103.338
		L139.133,103.338z"/>
	<path fill="#263056" d="M141.49,100.375c-0.151,0.226-0.307,0.451-0.454,0.677c-0.081,0.123-0.147,0.257-0.206,0.394l0.976,0.976
		l1.266-0.15l-0.479,0.938l20.561,20.56l-29.797,29.8c0.015,0.067,0.035,0.132,0.051,0.2l0.289,1.186l31.188-31.186L141.49,100.375z
		"/>
	<path fill="#263056" d="M99.808,61.489l-62.28,62.281l12.237,12.239c0.419-0.088,0.825-0.2,1.217-0.354
		c-1.886-1.147-3.812-2.615-5.179-4.87l-1.13-1.863l2.112,0.538c0.449,0.114,0.892,0.237,1.319,0.354
		c0.457,0.125,0.902,0.243,1.343,0.353l-6.397-6.397l27.434-27.434c0.093-0.138,0.211-0.257,0.358-0.357l28.966-28.967
		l17.083,17.083c0.869,0.192,1.666,0.288,2.43,0.288c1.012,0,1.951-0.17,2.875-0.505L99.808,61.489z"/>
	<path fill="#263056" d="M121.678,165.245l-21.87,21.871l-20.103-20.105c-0.156,0.189-0.311,0.377-0.461,0.57l-0.306,0.396
		l20.869,20.87l22.255-22.254L121.678,165.245z"/>
	<path fill="#263056" d="M140.889,102.568l-0.222-0.219c0.007,0.032,0.016,0.062,0.026,0.095l0.143,0.136
		C140.855,102.577,140.871,102.572,140.889,102.568"/>
	<path fill="#263056" d="M48.854,136.16l-12.391-12.39l0.266-0.267l63.078-63.078l0.265,0.265l22.894,22.894l1.244-0.487
		L99.808,58.693l-65.075,65.077l12.519,12.52C47.798,136.262,48.333,136.226,48.854,136.16"/>
	<path fill="#263056" d="M121.443,164.417l-0.01-0.033c-0.388-1.369-0.904-2.732-1.423-4.06l-20.202,20.205l-16.805-16.806
		c-1.026,0.846-1.958,1.748-2.809,2.713l19.614,19.615L121.443,164.417z"/>
	<path fill="#263056" d="M142.226,103.906c-0.379,0.633-0.954,0.983-1.642,0.983c-0.58,0-1.203-0.249-1.887-0.76
		c-0.236,0.329-0.529,0.637-0.885,0.886l18.754,18.755l-13.975,13.975l1.631,0.817l-2.821,0.373l-3.714,3.714l0.526,0.059
		l-0.413,1.075c-0.043,0.111-0.094,0.218-0.155,0.319c-0.522,0.863-1.678,1.342-3.005,1.594l-3.1,3.098
		c0.642,1.182,1.168,2.481,1.587,3.938l28.96-28.961L142.226,103.906z"/>
	<path fill-rule="evenodd" clip-rule="evenodd" fill="#263056" d="M65.013,136.137c-1.052-0.938-2.102-1.877-3.241-2.893
		c-0.115,0.158-0.294,0.319-0.366,0.515c-1.41,3.87-4.731,5.189-9.187,4.767c-2.255-0.214-4.498-0.747-6.741-1.263
		c2.569-0.143,5.18-0.029,7.313-1.591c-2.492-1.387-4.708-2.845-6.226-5.35c2.788,0.71,5.236,1.704,7.869,0.742
		c-0.729-2.543-1.454-5.072-2.214-7.73c1.041,0.438,1.787,0.752,2.824,1.188c-0.248-0.468-0.361-0.683-0.413-0.782
		c2.135-0.303,4.29-0.574,6.422-0.927c2.513-0.417,3.865-1.845,4.431-3.993c0.634-2.408,0.106-4.757-0.781-7.113
		c-0.118-0.314-0.234-0.632-0.333-0.951c-0.021-0.066,0.04-0.147,0.083-0.277c1.255,0.47,2.51,0.938,3.761,1.405
		c0.053-0.105,0.106-0.209,0.159-0.314c-1.64-0.705-3.281-1.412-4.919-2.119c3.824-0.421,7.839,0.827,11.681-0.866
		c-2.935-0.855-5.623-1.638-8.309-2.42c0.004-0.134,0.008-0.27,0.012-0.403c4.441,0.725,8.601,0.548,11.753-1.81
		c-2.12-1.876-4.307-3.739-6.392-5.686c-1.508-1.407-1.427-1.527,0.643-2.063c5.598-1.448,11.194-2.897,16.799-4.329
		c2.812-0.717,5.461-1.611,7.759-3.26c3.245-2.327,7.202-3.628,11.255-4.623c1.377-0.337,3.004-0.059,4.515,0.004
		c0.496,0.02,1.007,0.226,1.493,0.391c2.675,0.909,5.336,1.319,8.063,0.251c-0.565,1.128-2.301,2.049-3.503,1.838
		c-1.984-0.346-3.952-0.799-5.933-1.184c-1.707-0.332-3.411-0.536-5.208,0.121c0.591,0.335,1.073,0.608,1.642,0.929
		c-1.266,0.414-2.461,0.801-3.656,1.199c-0.295,0.098-0.633,0.173-0.858,0.35c-0.532,0.421-1.011,0.897-1.511,1.351
		c0.521,0.337,1.04,0.674,1.646,1.066c-1.692,0.575-3.454,1.244-5.278,1.767c-1.353,0.385-2.005,1.098-2,2.355
		c0.004,1.953-0.586,3.737-1.6,5.412c-0.754,1.245-1.88,1.91-3.547,1.727c-3.342-0.368-6.684-0.771-10.022-1.194
		c-2.453-0.313-4.9-0.682-7.395-0.912c4.879,4.464,11.656,5.311,17.625,7.889c-1.587,1.335-3.143,2.642-4.969,4.178
		c1.848-0.314,3.321-0.564,4.721-0.803c-1,1.895-1.942,3.681-2.885,5.468c0.169,0.089,0.339,0.179,0.507,0.268
		c0.63-0.821,1.259-1.643,2.082-2.714c-0.008,1.259-0.013,2.2-0.021,3.429c0.5-0.614,0.809-0.993,1.337-1.645
		c-0.546,2.247-1.012,4.153-1.476,6.059c-0.106,0.008-0.213,0.017-0.32,0.026c-0.311-0.48-0.625-0.962-1.123-1.733
		c-1.152,1.897-2.205,3.629-3.395,5.587c-1.779-3.649-1.196-7.131-0.718-10.916c-1.374,0.611-2.498,1.11-3.623,1.61
		c-0.109-0.073-0.218-0.148-0.33-0.222c2.142-2.862,4.281-5.724,6.514-8.707c-2.809-0.639-5.547-1.774-8.417-0.12
		c0.82,0.258,1.451,0.457,2.319,0.73c-4.438,3.717-9.032,6.634-15.647,5.319c-0.177,2.362-0.348,4.633-0.541,7.219
		c1.229-1.084,2.292-2.02,3.354-2.957c0.134,0.064,0.265,0.128,0.399,0.192c-0.679,1.238-1.25,2.543-2.077,3.695
		c-0.687,0.957-1.578,1.836-2.556,2.575c-1.808,1.366-2.431,3.134-2.513,5.208c-0.091,2.347,0.14,4.629,1.544,6.793
		C65.202,135.975,65.105,136.056,65.013,136.137"/>
	<path fill-rule="evenodd" clip-rule="evenodd" fill="#263056" d="M111.04,102.22c-5.111,2.163-9.563,5.056-14.003,7.995
		c2.179-4.518,5.48-8.269,9.724-11.505c-0.273-0.165-0.476-0.311-0.702-0.419c-0.197-0.094-0.419-0.144-0.641-0.469
		c1.406-0.05,2.818-0.061,4.218-0.159c1.646-0.115,3.31-0.211,4.91-0.492c1.616-0.284,2.683-1.241,3.296-2.578
		c2.805-6.098,9.099-8.487,15.282-10.991c0.091,0.103,0.179,0.207,0.27,0.308c-0.534,0.256-1.103,0.471-1.597,0.774
		c-4.75,2.901-8.783,6.367-11.123,11.149c-0.268,0.548-0.541,1.094-0.774,1.654c-0.694,1.663-1.878,2.823-3.728,3.681
		c-3.572,1.661-5.704,4.573-7.906,7.503c0.41-1.064,0.781-2.139,1.231-3.185C109.974,104.382,110.523,103.307,111.04,102.22"/>
	<path fill-rule="evenodd" clip-rule="evenodd" fill="#263056" d="M136.354,78.055c-2.381,1.335-4.574,2.563-6.764,3.79
		c-0.066-0.065-0.131-0.13-0.196-0.197c0.104-0.127,0.179-0.295,0.321-0.377c2.757-1.574,5.518-3.141,8.285-4.699
		c2.322-1.307,5.168-0.838,6.432,1.433c2.871,5.16,3.911,10.397,0.67,15.432c-1.549,2.404-3.234,4.734-4.807,7.124
		c-0.309,0.465-0.517,1.04-0.539,1.586c-0.018,0.437,0.191,1,0.531,1.321c0.176,0.167,0.854-0.069,1.23-0.113
		c-0.51,0.999-1.549,0.865-3.043-0.597c-0.639,1.304-1.5,2.288-3.418,1.808c-1.404-0.353-2.014-0.896-1.527-2.036
		c0.562-1.313,1.352-2.604,2.361-3.668c1.92-2.021,4.185-3.786,6.089-5.818c2.171-2.316,2.843-5.188,2.56-8.257
		c-0.202-2.213-1.643-3.353-4.148-3.446c-2.633-0.099-2.632-0.099-3.574-2.305C136.734,78.847,136.641,78.663,136.354,78.055"/>
	<path fill-rule="evenodd" clip-rule="evenodd" fill="#263056" d="M92.673,165.462c0.323-2.725,0.657-5.551,1.003-8.471
		c-6.271,2.234-11.456,5.295-15.136,10.045c-0.151-0.102-0.303-0.201-0.453-0.303c2.117-3.205,4.234-6.41,6.363-9.633
		c0.043,0.033-0.039-0.066-0.077-0.057c-3.057,0.732-6.029,1.652-8.373,3.514c-1.887,1.498-2.327,3.584-2.185,5.834
		c0.204,3.215,1.234,6.282,2.667,9.335c-3.776-2.669-6.507-5.96-8.125-9.911c-1.638-3.995-2.004-7.944,0.223-12.035
		c-4.058,1.57-7.014,4.051-11.354,4.719c1.339-1.535,2.678-2.788,3.631-4.248c0.95-1.457,1.514-3.121,2.212-4.615
		c-3.007-0.246-5.857-0.329-8.668-0.75c-2.781-0.416-5.543-1.129-7.528-3.316c3.511,0.816,6.826,0.316,10.157-0.183
		c3.415-0.513,6.285-1.921,8.864-3.726c0.245,0.234,0.362,0.295,0.364,0.354c0.094,2.32,2.04,2.863,4.083,3.323
		c0.908,0.202,1.809,0.437,2.788,0.675c0.127-1.015,0.238-1.9,0.395-3.128c1.384,1.907,1.874,4.167,4.97,4.119
		c-0.436-1.937-1.546-3.397-3.145-4.597c-1.313-0.984-2.777-1.82-4.031-2.856c-1.162-0.96-2.132-2.102-3.263-3.237
		c-0.247,0.383-0.582,0.904-0.958,1.491c-1.513-6.892,7.39-18.015,16.364-19.113c-0.693,1.418-1.29,2.836-2.077,4.159
		c-0.326,0.551-0.981,1.001-1.612,1.326c-1.4,0.718-2.902,1.295-4.32,1.989c-2.288,1.119-3.514,2.961-4.204,5.172
		c3.054-2.771,5.951-5.729,10.863-6.285c-6.678,3.662-6.727,8.898-3.77,14.928c1.323-4.795,4.511-8.182,9.52-10.277
		c-0.754,1.111-1.696,2.15-2.218,3.349c-0.784,1.799-1.41,3.677-1.838,5.584c-0.294,1.309,0.467,2.556,1.442,3.667
		c2.525,2.876,2.519,2.878,2.073,6.171c2.579-0.943,4.162-3.655,3.831-6.872c-0.274-2.664-1.001-5.269-2.544-7.73
		c2.368,1.688,4.334,3.655,5.758,6.026c0.104-0.033,0.209-0.064,0.314-0.096c-0.267-0.768-0.497-1.549-0.814-2.305
		c-0.739-1.758-1.485-3.516-2.29-5.254c-0.931-2.008-0.448-3.773,0.688-5.442c0.164-0.241,0.462-0.409,0.798-0.695
		c0.063,4.549,1.465,6.925,5.116,8.713c0.226-2.202,0.208-4.5,2.869-5.929c-0.66,3.558,1.599,6.317,3.079,9.274
		c1.118,2.227,1.937,4.552,2.67,6.853c-0.628-0.88-1.255-1.762-1.882-2.643c-0.126,0.045-0.252,0.093-0.381,0.139
		c2.021,7.182,3.307,14.326,0.322,21.266c0.574-3.988-1.137-7.733-2.605-11.599c-0.094,0.386-0.191,0.771-0.281,1.159
		c-0.836,3.675-2.508,6.89-5.875,9.25C94.811,163.489,93.708,164.581,92.673,165.462"/>
	<path fill-rule="evenodd" clip-rule="evenodd" fill="#263056" d="M127.965,155.61c-1.48-6.776-5.893-11.541-11.514-15.75
		c1.967,0.578,3.926,1.191,5.904,1.724c1.976,0.531,3.975,0.979,5.963,1.462c0.055-0.152,0.109-0.308,0.164-0.463
		c-2.111-0.789-4.223-1.58-6.5-2.432c0.683-0.074,1.383-0.32,2.004-0.187c2.088,0.449,4.165,0.97,6.207,1.589
		c1.424,0.432,2.758,1.145,4.183,1.588c0.833,0.256,1.759,0.228,2.595,0.322c-0.553,1.434-4.555,2.047-9.957,1.23
		c3.129,2.597,4.64,5.648,5.528,9.288c-1.538-1.218-2.812-2.229-4.091-3.242c0.863,3.087,1.717,6.132,2.656,9.488
		c-2.502-2.389-4.689-4.476-7.063-6.741c0.021,3.787-0.285,7.225-1.754,10.652c-1.407-4.951-4.277-9.429-3.91-14.621
		c-0.454,0.468-0.715,0.736-1.107,1.135c-0.752-2.786-1.982-5.217-4.637-7.104c0.357,1.068,0.717,2.136,1.166,3.474
		c-1.856-1.319-3.083-2.708-3.965-4.344c-2.408-4.468-1.852-8.896-0.82-13.314c0.218-0.92,0.537-1.817,1.072-2.657
		c-0.146,2.292-0.293,4.586-0.463,7.218c0.492-0.351,0.668-0.476,0.945-0.671c0.098,0.228,0.2,0.429,0.271,0.639
		c1.223,3.599,3.322,6.808,6.062,9.759c3.31,3.561,6.546,7.169,9.817,10.755C127.02,154.731,127.356,155.022,127.965,155.61"/>
	<path fill-rule="evenodd" clip-rule="evenodd" fill="#263056" d="M136.046,109.396c-0.468,0.257-0.906,0.56-1.405,0.754
		c-0.577,0.226-1.207,0.359-1.816,0.521c-3.679,0.966-5.559,3.248-5.508,6.658c0.02,1.458,1.023,2.454,2.178,3.385
		c0.273,0.22,0.573,0.41,0.776,0.856c-1.089-0.265-2.176-0.53-3.591-0.874c2.138,2.745,4.043,5.197,5.95,7.646
		c-0.122,0.103-0.241,0.205-0.36,0.307c-1.813-1.792-4.137-2.064-6.938-2.321c3.354,2.393,7.065,3.826,9.551,6.629
		c-2.918-0.257-5.66-0.499-8.402-0.74c-0.045,0.203-0.088,0.406-0.135,0.61c1.358,0.547,2.688,1.181,4.084,1.624
		c2.947,0.938,5.932,1.761,8.893,2.666c0.539,0.165,1.023,0.497,1.91,0.942c-3.68,0.486-6.904,1.038-10.178,1.317
		c-4.367,0.371-9.436-2.608-11.48-6.147c-2.616-4.522-1.784-8.683,0.146-12.818c1.318-2.825,3.12-5.377,5.592-7.572
		c-0.473,0.896-1.033,1.758-1.398,2.69c-1.094,2.783-2.246,5.554-3.113,8.404c-0.785,2.577,0.176,4.208,2.925,5.687
		c0.685,0.37,1.431,0.649,2.286,0.813c-0.847-0.722-1.73-1.416-2.53-2.174c-0.832-0.785-1.58-1.635-2.642-2.749
		c2.211-0.388,4.016-0.706,5.623-0.989c-0.73-1.161-1.662-2.39-2.297-3.714c-0.592-1.237-0.658-2.473,0.412-3.614
		c1.189-1.269,2.062-2.771,3.204-4.077c1.511-1.728,3.444-2.976,5.999-3.422c0.713-0.123,1.392-0.371,2.088-0.562
		C135.927,109.221,135.985,109.309,136.046,109.396"/>
	<path fill-rule="evenodd" clip-rule="evenodd" fill="#263056" d="M110.373,123.018c0.176-0.968,0.35-1.937,0.525-2.905
		c-0.1-0.06-0.198-0.117-0.299-0.174c-2.506,2.664-5.086,5.238-9.266,5.892c4.904-3.367,5.467-8.303,5.459-13.452
		c0.129,0,0.26,0,0.387,0.002c0.313,1.681,0.627,3.361,0.983,5.287c3.856-4.21,6.146-9.042,9.014-13.63
		c0.189,2.595,0.194,5.049,0.589,7.479c0.399,2.464,1.182,4.903,1.828,7.486c-2.445-0.418-3.32-2.386-4.773-3.745
		c-1.309,2.661-2.615,5.32-3.92,7.98C110.725,123.164,110.549,123.091,110.373,123.018"/>
	<g>
		<path fill-rule="evenodd" clip-rule="evenodd" fill="#263056" d="M101.404,258.198c2.398,1.381,2.41,1.389,2.826,2.223
			c-1.277-0.492-2.503-1.004-3.761-1.426c-0.404-0.136-0.932-0.131-1.339,0.006c-1.253,0.42-2.478,0.936-3.77,1.434
			c0.545-1.229,1.585-1.713,2.718-2.074c0-0.076,0-0.154,0.001-0.232c-1.028-0.268-2.05-0.573-3.09-0.771
			c-0.242-0.045-0.608,0.222-0.818,0.439c-0.547,0.564-1.04,1.189-1.556,1.786c-0.15,0.175-0.306,0.345-0.586,0.419
			c0.437-0.615,0.874-1.231,1.31-1.846c-1.991,0.623-3.773,1.796-5.929,1.513c1.909-0.222,3.136-0.667,2.988-1.173
			c1.449,0.274,2.332-0.914,3.544-1.254c0.001-0.078,0.004-0.154,0.005-0.23c-0.652-0.15-1.299-0.343-1.96-0.443
			c-2.08-0.303-4.159-0.644-6.252-0.833c-1.286-0.117-2.596-0.015-3.891,0.038c-1.311,0.057-2.622,0.162-3.931,0.259
			c-3.114,0.229-6.131-0.188-9.043-1.319c-1.037-0.404-1.929-0.264-2.531,0.455c-0.346-0.031-0.557-0.096-0.752-0.061
			c-1.239,0.209-2.469,0.47-3.713,0.641c-0.35,0.047-0.734-0.15-1.103-0.234c-0.595-0.131-1.188-0.26-1.803-0.512
			c0.21,0,0.427-0.043,0.628,0.006c1.052,0.249,2.1,0.496,3.256,0.275c-0.354-0.486-0.664-0.917-0.977-1.347
			c0.038-0.024,0.073-0.055,0.109-0.081c0.058,0.038,0.138,0.066,0.167,0.121c0.717,1.328,1.743,1.475,3.04,0.877
			c0.613-0.282,1.292-0.428,1.948-0.811c-1.581-0.627-3.133-1.326-4.744-1.869c-1.923-0.645-3.872-1.225-5.844-1.697
			c-1.888-0.449-3.815-0.734-5.726-1.074c-0.779-0.139-1.382,0.283-1.775,1.024c-0.412,0.769-0.921,1.485-1.387,2.225
			c-0.06-0.036-0.12-0.073-0.176-0.109c0.423-0.723,0.846-1.442,1.268-2.165c-0.048-0.054-0.095-0.106-0.143-0.16
			c-0.388,0.222-0.776,0.438-1.169,0.654c-0.973,0.537-1.936,1.098-2.926,1.602c-1.758,0.896-3.567,0.794-5.386,0.196
			c-0.493-0.159-0.983-0.327-1.474-0.493l0.063-0.174c0.81,0.227,1.608,0.557,2.434,0.655c0.892,0.112,1.811,0.005,2.718,0.012
			c0.58,0.007,0.899-0.552,1.533-0.579c0.557-0.025,1.103-0.508,1.638-0.818c0.551-0.317,1.082-0.672,1.625-1.004
			c0.518-0.313,1.044-0.617,1.54-1.104c-1.385-0.186-2.768-0.361-4.148-0.553c-2.79-0.392-5.574-0.822-8.369-1.174
			c-0.886-0.108-1.678,0.293-2.493,1.076c0.16-0.351,0.228-0.506,0.402-0.885c-1.073,0.046-2.014,0.044-2.945,0.135
			c-1.121,0.113-2.235,0.303-3.35,0.459c-0.008-0.06-0.018-0.118-0.026-0.18c1.179-0.18,2.36-0.356,3.539-0.537
			c0.024-0.077,0.047-0.156,0.071-0.236c-1.203-0.489-2.39-1.021-3.611-1.459c-1.258-0.449-2.539-0.298-3.882,0.166
			c0.667-0.684,1.613-0.82,2.942-0.66c1.45,0.172,2.714,0.85,4.041,1.348c1.306,0.489,2.602,0.897,4.031,0.504
			c-2.5-0.9-4.641-2.283-6.473-4.212c-1.773-1.865-2.708-4.071-3.151-6.548c0.911,2.765,2.108,5.344,4.614,7.373
			c-0.036-0.463-0.057-0.722-0.093-1.197c0.146,0.275,0.245,0.372,0.236,0.457c-0.106,0.935,0.517,1.355,1.186,1.779
			c2.208,1.39,4.665,2.021,7.206,2.393c0.975,0.145,1.956,0.246,2.933,0.365c0.054-0.063,0.106-0.127,0.159-0.191
			c-0.591-0.821-1.125-1.696-1.809-2.433c-0.209-0.227-0.835-0.085-1.266-0.07c-0.202,0.007-0.402,0.103-0.675,0.181
			c0.13-0.267,0.214-0.434,0.325-0.655c0.316,0.017,0.705,0.038,1.3,0.069c-1.466-1.834-3.09-3.172-5.191-3.922
			c0.036-0.067,0.075-0.133,0.114-0.205c0.531,0.206,1.063,0.409,1.703,0.651c-0.109-0.293-0.18-0.483-0.255-0.681
			c0.038,0,0.089-0.018,0.107,0c1.454,1.537,2.904,3.084,4.366,4.614c0.133,0.138,0.352,0.196,0.53,0.289
			c0.045-0.056,0.089-0.11,0.133-0.165c0.284,0.666,0.571,1.332,0.847,2.002c0.227,0.551,0.693,0.616,1.208,0.682
			c3.464,0.436,6.928,0.883,10.391,1.344c0.853,0.115,1.696,0.298,2.581,0.454c-0.397-1.017-1.195-1.465-2.652-1.416
			c0.323-0.122,0.47-0.179,0.62-0.235c-0.005-0.044,0.01-0.116-0.009-0.127c-1.284-0.736-2.541-1.528-3.867-2.177
			c-0.666-0.327-1.441-0.335-2.063,0.292c-0.166,0.17-0.414,0.264-0.692,0.309c0.321-0.279,0.642-0.557,1.068-0.922
			c-0.884-0.326-1.695-0.627-2.508-0.926c0.014-0.053,0.024-0.107,0.036-0.16c1.131,0.303,2.261,0.604,3.39,0.908
			c0.014-0.043,0.025-0.087,0.038-0.13c-0.766-0.849-1.536-1.69-2.305-2.538c0.073-0.07,0.142-0.139,0.213-0.205
			c1.605,1.862,3.325,3.58,5.862,4.631c-0.124-0.587-0.21-1.007-0.315-1.506c0.085,0.163,0.172,0.258,0.178,0.357
			c0.076,1.221,0.962,1.733,1.919,2.163c0.724,0.323,1.191,0.909,1.676,1.497c0.177,0.21,0.437,0.406,0.696,0.488
			c2.028,0.645,4.064,1.261,6.097,1.884c0.093,0.028,0.192,0.035,0.479,0.083c-0.56-1.295-0.954-2.531-2.093-3.367
			c0.239,0.12,0.479,0.24,0.766,0.385c0.022-0.27,0.04-0.481,0.044-0.519c0.338,0.561,0.748,1.222,1.138,1.892
			c0.187,0.322,0.5,0.668,0.481,0.984c-0.052,0.895,0.515,1.104,1.168,1.363c2.324,0.919,4.606,2.021,7.11,2.319
			c2.078,0.251,4.187,0.248,6.388,0.36c-0.38-0.8-1.712-1.502-3.191-1.814c0.197-0.069,0.344-0.121,0.561-0.199
			c-2.56-2.092-4.956-4.326-8.516-4.371c0.022-0.084,0.048-0.17,0.071-0.258c0.686,0.095,1.375,0.186,2.059,0.285
			c1.339,0.193,2.441,0.918,3.512,1.648c1.417,0.971,2.768,2.037,4.147,3.054c0.095,0.073,0.206,0.124,0.479,0.284
			c-0.475-1.039-0.875-1.916-1.275-2.794c0.067-0.026,0.133-0.051,0.201-0.075c0.187,0.361,0.372,0.727,0.627,1.23
			c0.135-0.327,0.208-0.503,0.281-0.68c-0.264,1.266,0.467,2.102,1.285,2.834c0.331,0.297,0.881,0.549,1.301,0.51
			c6.279-0.596,12.277,0.708,18.186,2.617c0.547,0.178,1.019,0.186,1.568,0.005c3.462-1.156,6.989-2.036,10.621-2.47
			c0.162-0.021,0.332-0.023,0.541-0.04v0.814c-2.043,0.382-4.051,0.755-6.06,1.133c-0.008,0.087-0.015,0.173-0.022,0.259
			c1.177,0.4,2.061,1.525,3.392,1.316c0.142,0.66,0.78,0.572,1.196,0.729c0.479,0.18,1,0.252,1.477,0.466
			c-1.949-0.045-3.637-0.921-5.475-1.589c0.441,0.621,0.885,1.242,1.326,1.865c-0.028,0.029-0.057,0.063-0.085,0.09
			c-0.167-0.168-0.339-0.33-0.497-0.506c-0.58-0.64-1.105-1.345-1.754-1.901c-0.274-0.237-0.83-0.308-1.217-0.233
			C103.199,257.603,102.387,257.905,101.404,258.198"/>
		<path fill-rule="evenodd" clip-rule="evenodd" fill="#263056" d="M98.21,258.198c-2.399,1.381-2.409,1.389-2.826,2.223
			c1.28-0.492,2.503-1.004,3.762-1.426c0.403-0.136,0.932-0.131,1.334,0.006c1.257,0.42,2.48,0.936,3.775,1.434
			c-0.547-1.229-1.585-1.713-2.72-2.074c0-0.076,0-0.154,0-0.232c1.028-0.268,2.052-0.573,3.091-0.771
			c0.241-0.045,0.605,0.222,0.815,0.439c0.548,0.564,1.04,1.189,1.558,1.786c0.151,0.175,0.306,0.345,0.586,0.419
			c-0.438-0.615-0.873-1.231-1.311-1.846c1.99,0.623,3.775,1.796,5.93,1.513c-1.91-0.222-3.137-0.667-2.988-1.173
			c-1.449,0.274-2.331-0.914-3.544-1.254c-0.001-0.078-0.003-0.154-0.006-0.23c0.653-0.15,1.3-0.343,1.96-0.443
			c2.082-0.303,4.162-0.644,6.254-0.833c1.285-0.117,2.596-0.015,3.891,0.038c1.313,0.057,2.622,0.162,3.931,0.259
			c3.114,0.229,6.132-0.188,9.043-1.319c1.037-0.404,1.929-0.264,2.53,0.455c0.346-0.031,0.557-0.096,0.754-0.061
			c1.238,0.209,2.467,0.47,3.712,0.641c0.351,0.047,0.733-0.15,1.103-0.234c0.595-0.131,1.188-0.26,1.804-0.512
			c-0.209,0-0.43-0.043-0.629,0.006c-1.052,0.249-2.101,0.496-3.255,0.275c0.352-0.486,0.664-0.917,0.975-1.347
			c-0.037-0.024-0.072-0.055-0.107-0.081c-0.058,0.038-0.138,0.066-0.17,0.121c-0.716,1.328-1.742,1.475-3.037,0.877
			c-0.613-0.282-1.293-0.428-1.949-0.811c1.58-0.627,3.136-1.326,4.744-1.869c1.923-0.645,3.874-1.225,5.843-1.697
			c1.888-0.449,3.815-0.734,5.728-1.074c0.779-0.139,1.382,0.283,1.775,1.024c0.41,0.769,0.92,1.485,1.386,2.225
			c0.062-0.036,0.119-0.073,0.177-0.109c-0.424-0.723-0.846-1.442-1.27-2.165c0.047-0.054,0.096-0.106,0.145-0.16
			c0.388,0.222,0.777,0.438,1.168,0.654c0.974,0.537,1.937,1.098,2.927,1.602c1.757,0.896,3.565,0.794,5.386,0.196
			c0.492-0.159,0.982-0.327,1.472-0.493c-0.021-0.059-0.042-0.117-0.062-0.174c-0.809,0.227-1.607,0.557-2.436,0.655
			c-0.893,0.112-1.809,0.005-2.716,0.012c-0.58,0.007-0.899-0.552-1.532-0.579c-0.557-0.025-1.104-0.508-1.64-0.818
			c-0.55-0.317-1.081-0.672-1.624-1.004c-0.518-0.313-1.043-0.617-1.539-1.104c1.383-0.186,2.767-0.361,4.15-0.553
			c2.787-0.392,5.57-0.822,8.365-1.174c0.886-0.108,1.679,0.293,2.494,1.076c-0.159-0.351-0.229-0.506-0.402-0.885
			c1.076,0.046,2.014,0.044,2.945,0.135c1.122,0.113,2.234,0.303,3.351,0.459c0.011-0.06,0.018-0.118,0.024-0.18
			c-1.178-0.18-2.358-0.356-3.536-0.537c-0.024-0.077-0.048-0.156-0.071-0.236c1.201-0.489,2.388-1.021,3.609-1.459
			c1.262-0.449,2.54-0.298,3.882,0.166c-0.665-0.684-1.613-0.82-2.94-0.66c-1.45,0.172-2.711,0.85-4.039,1.348
			c-1.308,0.489-2.603,0.897-4.033,0.504c2.502-0.9,4.643-2.283,6.473-4.212c1.775-1.865,2.709-4.071,3.153-6.548
			c-0.911,2.765-2.109,5.344-4.614,7.373c0.036-0.463,0.055-0.722,0.092-1.197c-0.146,0.275-0.243,0.372-0.233,0.457
			c0.105,0.935-0.521,1.355-1.188,1.779c-2.206,1.39-4.664,2.021-7.206,2.393c-0.977,0.145-1.957,0.246-2.934,0.365
			c-0.054-0.063-0.105-0.127-0.158-0.191c0.592-0.821,1.125-1.696,1.809-2.433c0.208-0.227,0.836-0.085,1.269-0.07
			c0.2,0.007,0.399,0.103,0.673,0.181c-0.131-0.267-0.216-0.434-0.326-0.655c-0.316,0.017-0.705,0.038-1.299,0.069
			c1.466-1.834,3.092-3.172,5.191-3.922c-0.04-0.067-0.077-0.133-0.114-0.205c-0.532,0.206-1.063,0.409-1.704,0.651
			c0.109-0.293,0.18-0.483,0.256-0.681c-0.039,0-0.09-0.018-0.108,0c-1.453,1.537-2.902,3.084-4.366,4.614
			c-0.132,0.138-0.352,0.196-0.529,0.289c-0.045-0.056-0.088-0.11-0.133-0.165c-0.281,0.666-0.57,1.332-0.848,2.002
			c-0.225,0.551-0.691,0.616-1.206,0.682c-3.467,0.436-6.932,0.883-10.39,1.344c-0.854,0.115-1.699,0.298-2.585,0.454
			c0.396-1.017,1.197-1.465,2.652-1.416c-0.322-0.122-0.468-0.179-0.618-0.235c0.004-0.044-0.008-0.116,0.01-0.127
			c1.284-0.736,2.539-1.528,3.863-2.177c0.668-0.327,1.441-0.335,2.065,0.292c0.169,0.17,0.413,0.264,0.694,0.309
			c-0.324-0.279-0.645-0.557-1.068-0.922c0.883-0.326,1.694-0.627,2.506-0.926c-0.012-0.053-0.023-0.107-0.034-0.16
			c-1.131,0.303-2.262,0.604-3.392,0.908c-0.012-0.043-0.023-0.087-0.037-0.13c0.77-0.849,1.535-1.69,2.305-2.538
			c-0.07-0.07-0.143-0.139-0.213-0.205c-1.605,1.862-3.324,3.58-5.86,4.631c0.124-0.587,0.208-1.007,0.313-1.506
			c-0.083,0.163-0.17,0.258-0.177,0.357c-0.077,1.221-0.963,1.733-1.918,2.163c-0.725,0.323-1.191,0.909-1.678,1.497
			c-0.178,0.21-0.438,0.406-0.696,0.488c-2.027,0.645-4.063,1.261-6.096,1.884c-0.093,0.028-0.192,0.035-0.481,0.083
			c0.561-1.295,0.953-2.531,2.094-3.367c-0.24,0.12-0.479,0.24-0.766,0.385c-0.021-0.27-0.04-0.481-0.046-0.519
			c-0.337,0.561-0.745,1.222-1.136,1.892c-0.188,0.322-0.501,0.668-0.482,0.984c0.053,0.895-0.515,1.104-1.168,1.363
			c-2.323,0.919-4.607,2.021-7.109,2.319c-2.078,0.251-4.188,0.248-6.387,0.36c0.38-0.8,1.711-1.502,3.189-1.814
			c-0.197-0.069-0.344-0.121-0.561-0.199c2.559-2.092,4.956-4.326,8.517-4.371c-0.023-0.084-0.048-0.17-0.069-0.258
			c-0.689,0.095-1.375,0.186-2.063,0.285c-1.336,0.193-2.439,0.918-3.512,1.648c-1.416,0.971-2.766,2.037-4.146,3.054
			c-0.095,0.073-0.204,0.124-0.479,0.284c0.474-1.039,0.874-1.916,1.274-2.794c-0.066-0.026-0.133-0.051-0.199-0.075
			c-0.187,0.361-0.373,0.727-0.627,1.23c-0.137-0.327-0.211-0.503-0.283-0.68c0.264,1.266-0.466,2.102-1.284,2.834
			c-0.328,0.297-0.88,0.549-1.298,0.51c-6.28-0.596-12.278,0.708-18.189,2.617c-0.547,0.178-1.019,0.186-1.566,0.005
			c-3.461-1.156-6.989-2.036-10.619-2.47c-0.166-0.021-0.331-0.023-0.543-0.04v0.814c2.042,0.382,4.05,0.755,6.06,1.133
			c0.008,0.087,0.014,0.173,0.021,0.259c-1.177,0.4-2.061,1.525-3.391,1.316c-0.142,0.66-0.779,0.572-1.194,0.729
			c-0.481,0.18-1.002,0.252-1.479,0.466c1.95-0.045,3.639-0.921,5.475-1.589c-0.442,0.621-0.884,1.242-1.327,1.865
			c0.03,0.029,0.058,0.063,0.087,0.09c0.166-0.168,0.339-0.33,0.498-0.506c0.578-0.64,1.104-1.345,1.751-1.901
			c0.276-0.237,0.83-0.308,1.216-0.233C96.418,257.603,97.229,257.905,98.21,258.198"/>
	</g>
	<path fill-rule="evenodd" clip-rule="evenodd" fill="#263056" d="M153.393,176.412c-2.526-0.698-5-0.187-7.473,0.313
		c-0.041,0.123-0.081,0.248-0.122,0.373c3.015,1.484,6.027,2.969,9.045,4.452c-0.015,0.05-0.028,0.099-0.042,0.153
		c-0.898-0.303-1.819-0.545-2.684-0.916c-1.734-0.742-3.449-1.529-5.148-2.344c-3.238-1.552-6.485-1.395-9.727-0.072
		c-0.524,0.213-0.981,0.653-1.4,1.058c-1.998,1.917-3.973,3.86-5.965,5.785c-0.207,0.202-0.471,0.345-0.824,0.597
		c-0.387-1.145-0.073-1.971,0.679-2.525c2.97-2.176,5.268-4.986,7.614-7.773c0.824-0.979,1.854-1.871,2.961-2.508
		c2.424-1.4,3.854-3.533,4.969-5.974c1.096-2.394,2.065-4.855,3.348-7.143c0.707-1.261,1.948-2.222,3.121-3.184
		c-1.791,1.978-3.221,4.134-3.87,6.776c3.45-3.879,8.33-5.508,12.384-8.402c0.063,0.096,0.128,0.191,0.19,0.287
		c-2.503,1.681-4.955,3.447-7.527,5.017c-2.129,1.302-3.978,2.776-5.184,5.03c-0.892,1.666-2.002,3.213-3.007,4.822
		c-0.197,0.317-0.354,0.661-0.51,0.95c1.661,0,3.223-0.009,4.783,0.003c3.044,0.021,5.881-0.684,8.685-1.926
		c4.202-1.863,8.619-3.01,13.287-2.789c0.376,0.018,0.748,0.117,1.128,0.29c-4.897,0.198-9.68,0.778-14.139,3.563
		c0.38,0.274,0.735,0.723,1.172,0.817c3.373,0.74,6.754,1.464,10.151,2.081c1.298,0.236,2.65,0.18,3.977,0.258
		c-0.015,0.16-0.028,0.32-0.042,0.479c-2.733-0.316-5.477-0.551-8.193-0.975c-2.746-0.43-5.447-1.236-8.206-1.51
		c-1.85-0.185-3.76,0.303-5.647,0.43c-1.651,0.111-3.309,0.174-4.965,0.195c-2.85,0.039-5.061,1.312-6.848,3.439
		c-0.402,0.479-0.791,0.97-1.117,1.37C143.278,177.091,148.266,174.647,153.393,176.412"/>
	<path fill-rule="evenodd" clip-rule="evenodd" fill="#263056" d="M46.224,176.412c2.528-0.698,5-0.187,7.471,0.313
		c0.042,0.123,0.081,0.248,0.125,0.373c-3.017,1.484-6.031,2.969-9.045,4.452c0.012,0.05,0.029,0.099,0.043,0.153
		c0.896-0.303,1.816-0.545,2.682-0.916c1.733-0.742,3.448-1.529,5.148-2.344c3.239-1.552,6.485-1.395,9.727-0.072
		c0.526,0.213,0.981,0.653,1.402,1.058c1.999,1.917,3.971,3.86,5.962,5.785c0.208,0.202,0.472,0.345,0.826,0.597
		c0.386-1.145,0.075-1.971-0.678-2.525c-2.97-2.176-5.268-4.986-7.615-7.773c-0.825-0.979-1.854-1.871-2.961-2.508
		c-2.422-1.4-3.854-3.533-4.97-5.974c-1.094-2.394-2.063-4.855-3.346-7.143c-0.707-1.261-1.948-2.222-3.123-3.184
		c1.791,1.978,3.22,4.134,3.872,6.776c-3.45-3.879-8.331-5.508-12.385-8.402c-0.062,0.096-0.127,0.191-0.189,0.287
		c2.503,1.681,4.954,3.447,7.525,5.017c2.131,1.302,3.977,2.776,5.185,5.03c0.892,1.666,2.004,3.213,3.007,4.822
		c0.198,0.317,0.356,0.661,0.512,0.95c-1.664,0-3.225-0.009-4.785,0.003c-3.043,0.021-5.88-0.684-8.683-1.926
		c-4.201-1.863-8.62-3.01-13.289-2.789c-0.376,0.018-0.75,0.117-1.125,0.29c4.896,0.198,9.678,0.778,14.136,3.563
		c-0.381,0.274-0.737,0.723-1.17,0.817c-3.375,0.74-6.754,1.464-10.154,2.081c-1.297,0.236-2.648,0.18-3.973,0.258
		c0.013,0.16,0.026,0.32,0.041,0.479c2.732-0.316,5.476-0.551,8.193-0.975c2.748-0.43,5.45-1.236,8.206-1.51
		c1.85-0.185,3.76,0.303,5.648,0.43c1.652,0.111,3.309,0.174,4.965,0.195c2.849,0.039,5.061,1.312,6.849,3.439
		c0.402,0.479,0.791,0.97,1.117,1.37C56.337,177.091,51.351,174.647,46.224,176.412"/>
	<path fill-rule="evenodd" clip-rule="evenodd" fill="#263056" d="M72.266,62.859c-4.232,0.097-7.7,1.423-11.102,3.068
		c-3.476,1.682-6.268,4.034-8.677,7.113c-1.508,1.926-3.847,3.248-5.939,4.654c-1.789,1.204-3.758,2.141-5.649,3.198
		c-0.064-0.103-0.129-0.206-0.197-0.306c0.837-0.504,1.699-0.966,2.504-1.517c1.433-0.979,2.832-2.007,4.239-3.022
		c0.244-0.174,0.431-0.477,0.693-0.558c3.172-0.993,4.342-4.077,6.49-6.167c-5.208,0.885-10.034,2.604-14.047,6.22
		c-0.077-0.127-0.151-0.253-0.226-0.379c2.269-1.645,4.536-3.287,6.834-4.953c-0.605-0.003-1.293-0.006-1.787-0.01
		c3.287-0.717,6.863-1.132,10.16-2.321c3.285-1.187,6.285-3.15,9.346-4.737c-3.896-1.534-7.526,0.572-11.29,1.502
		c-0.04-0.146-0.08-0.292-0.121-0.439c2.738-0.766,5.477-1.531,8.725-2.438c-2.099-0.679-3.838-1.242-5.574-1.805
		c-0.01-0.036-0.019-0.07-0.025-0.106c0.951,0.119,2.043-0.026,2.833,0.397c6.425,3.43,12.791,2.108,19.175-0.039
		c2.11-0.71,2.263-0.716,3.131-0.104c-3.278,1.263-6.63,2.678-10.068,3.85c-2.908,0.992-5.62,2.099-7.678,4.575
		c-0.933,1.126-2.383,1.823-3.652,2.608c1.84-1.81,3.548-3.795,5.573-5.369c1.28-0.997,3.039-1.375,4.58-2.046
		C70.999,63.517,71.46,63.261,72.266,62.859"/>
	<path fill-rule="evenodd" clip-rule="evenodd" fill="#263056" d="M127.35,62.859c4.232,0.097,7.7,1.423,11.101,3.068
		c3.478,1.682,6.269,4.034,8.678,7.113c1.511,1.926,3.849,3.248,5.941,4.654c1.788,1.204,3.758,2.141,5.646,3.198
		c0.066-0.103,0.133-0.206,0.2-0.306c-0.837-0.504-1.702-0.966-2.505-1.517c-1.435-0.979-2.832-2.007-4.239-3.022
		c-0.243-0.174-0.432-0.477-0.693-0.558c-3.171-0.993-4.343-4.077-6.491-6.167c5.209,0.885,10.037,2.604,14.051,6.22
		c0.074-0.127,0.15-0.253,0.223-0.379c-2.269-1.645-4.533-3.287-6.834-4.953c0.605-0.003,1.294-0.006,1.789-0.01
		c-3.288-0.717-6.864-1.132-10.161-2.321c-3.284-1.187-6.286-3.15-9.345-4.737c3.895-1.534,7.524,0.572,11.29,1.502
		c0.039-0.146,0.079-0.292,0.118-0.439c-2.739-0.766-5.479-1.531-8.725-2.438c2.1-0.679,3.838-1.242,5.575-1.805
		c0.01-0.036,0.019-0.07,0.028-0.106c-0.955,0.119-2.048-0.026-2.836,0.397c-6.425,3.43-12.793,2.108-19.174-0.039
		c-2.109-0.71-2.266-0.716-3.131-0.104c3.277,1.263,6.63,2.678,10.066,3.85c2.909,0.992,5.621,2.099,7.678,4.575
		c0.934,1.126,2.384,1.823,3.654,2.608c-1.842-1.81-3.548-3.795-5.574-5.369c-1.282-0.997-3.042-1.375-4.581-2.046
		C128.619,63.517,128.155,63.261,127.35,62.859"/>
	<polygon fill="#263056" points="21.52,28.423 35.937,57.29 36.51,57.368 22.587,29.493 22.145,26.215 21.279,26.647 	"/>
	<polygon fill="#263056" points="50.737,51.112 50.025,51.613 51.216,56.86 31.019,66.947 31.169,68.475 52.285,57.928 	"/>
	<polygon fill="#263056" points="13.866,32.255 12.533,31.016 12.478,31.044 13.938,32.398 	"/>
	<polygon fill="#263056" points="68.01,13.692 68.37,10.36 67.154,10.673 66.942,12.624 75.893,47.417 72.633,51.124 57.792,54.94 
		54.024,53.582 54.217,54.333 58.861,56.008 73.7,52.192 76.959,48.484 	"/>
	<polygon fill="#263056" points="52.616,14.413 52.405,16.363 60.441,47.606 61.031,47.818 61.273,47.757 53.474,17.432 
		53.833,14.1 	"/>
	<polygon fill="#263056" points="93.546,14.197 93.501,13.422 92.962,13.1 87.555,13.422 87.06,13.807 87.716,24.834 88.254,25.156 
		88.737,25.128 88.127,14.874 88.623,14.49 	"/>
	<polygon fill="#263056" points="100.08,31.686 103.985,28.669 102.89,10.263 101.85,9.642 102.918,27.601 99.011,30.617 
		88.618,31.236 88.12,31.62 88.978,46.007 90.343,49.011 80.956,49.571 80.59,50.723 91.411,50.08 90.045,47.075 89.188,32.688 
		89.685,32.305 	"/>
	<polygon fill="#263056" points="120.913,8.872 119.402,8.756 118.431,10.842 115.709,46.36 116.656,49.522 107.367,48.81 
		106.916,49.761 117.723,50.589 116.777,47.429 119.498,11.909 	"/>
	<polygon fill="#263056" points="140.93,33.758 141.504,31.307 138.753,11.697 137.803,11.476 	"/>
	<polygon fill="#263056" points="133.756,33.718 133.262,30.198 128.998,48.403 129.445,51.673 120.441,49.562 119.959,50.267 
		130.516,52.74 130.064,49.472 	"/>
	<polygon fill="#263056" points="156.358,15.824 154.818,15.463 153.43,17.542 145.303,52.225 145.754,55.495 137.457,53.548 
		137.574,54.395 146.821,56.561 146.371,53.292 154.498,18.609 	"/>
	<polygon fill="#263056" points="168.488,66.327 148.648,56.851 148.262,57.224 169.556,67.396 174.004,61.931 172.451,61.459 	"/>
	<polygon fill="#263056" points="170.107,48.086 166.566,45.567 164.087,44.382 163.466,44.479 158.704,54.448 159.02,54.989 
		159.836,55.379 164.533,45.545 165.154,45.449 167.635,46.635 171.178,49.153 174.443,42.311 173.053,41.921 	"/>
	<polygon fill="#263056" points="186.414,29.078 185.096,35.411 181.232,32.795 171.777,28.279 171.156,28.374 166.396,38.343 
		166.71,38.886 167.526,39.276 172.226,29.441 172.846,29.347 182.301,33.863 186.162,36.48 187.586,29.638 	"/>
	<polygon fill="#263056" points="37.388,188.204 34.304,206.771 36.016,203.96 38.456,189.271 40.115,187.016 38.662,186.472 	"/>
	<polygon fill="#263056" points="53.866,192.177 52.323,191.597 50.169,193.804 33.269,220.543 33.322,222.973 25.92,220.194 
		25.467,220.69 34.391,224.04 34.337,221.611 51.237,194.871 	"/>
	<polygon fill="#263056" points="23.71,182.771 20.643,201.661 22.335,198.878 24.778,183.841 26.536,181.925 25.014,181.351 	"/>
	<polygon fill="#263056" points="27.983,204.878 28.531,201.24 19.617,215.419 19.67,217.85 12.266,215.072 11.814,215.568 
		20.737,218.915 20.684,216.489 	"/>
	<polygon fill="#263056" points="61.147,194.728 58.813,207.079 59.103,207.399 59.99,207.568 62.215,195.796 63.668,193.214 
		62.159,192.928 	"/>
	<polygon fill="#263056" points="75.25,195.403 73.743,195.116 72.731,196.919 66.952,227.487 67.376,230.372 60.264,229.027 
		59.84,229.815 68.443,231.438 68.02,228.552 73.798,197.985 	"/>
	<polygon fill="#263056" points="59.16,213.822 62.361,214.426 62.471,213.847 62.179,213.525 58.092,212.755 57.702,212.946 
		55.369,225.296 55.793,228.183 48.686,226.839 48.238,227.618 56.862,229.251 56.437,226.364 58.771,214.015 	"/>
	<polygon fill="#263056" points="87.748,196.46 86.265,196.323 85.475,198.097 82.605,229.075 83.3,231.909 76.05,231.239 
		75.63,232.167 84.369,232.979 83.673,230.146 86.544,199.167 	"/>
	<polygon fill="#263056" points="102.537,216.874 94.43,216.94 92.14,215.274 92.143,215.566 95.499,218.007 102.892,217.944 
		102.888,217.133 	"/>
	<polygon fill="#263056" points="109.703,202.905 110.682,205.654 103.322,205.716 102.994,206.796 111.748,206.722 
		110.771,203.973 110.731,199.265 109.668,198.473 	"/>
	<polygon fill="#263056" points="109.797,214.11 109.931,229.923 106.688,232.425 94.563,232.528 92.272,230.862 92.275,231.155 
		95.63,233.595 107.754,233.492 110.998,230.989 110.863,214.903 	"/>
	<polygon fill="#263056" points="102.405,201.286 98.248,201.319 97.903,201.585 97.983,211.199 98.333,211.46 99.045,211.455 
		98.972,202.653 99.315,202.39 102.762,202.36 102.755,201.546 	"/>
	<polygon fill="#263056" points="98.465,227.048 99.178,227.04 99.171,226.435 100.101,223.669 98.671,223.683 98.104,225.366 
		98.115,226.784 	"/>
	<polygon fill="#263056" points="138.516,193.569 136.374,193.847 134.355,196.38 128.908,210.384 138.354,225.964 139.137,226.568 
		129.978,211.45 135.423,197.446 	"/>
	<polygon fill="#263056" points="122.065,195.706 121.734,197.374 123.07,207.669 123.121,207.489 123.756,205.806 122.803,198.443 
		123.381,195.536 	"/>
	<polygon fill="#263056" points="141.868,228.913 133.012,230.063 132.823,231.294 143.213,229.944 	"/>
	<polygon fill="#263056" points="125.892,222.237 126.95,219.482 126.051,217.979 124.824,221.168 125.734,228.178 127.035,230.839 
		119.658,231.797 119.412,233.034 128.105,231.907 126.801,229.244 	"/>
	<polygon fill="#263056" points="154.203,220.233 154.611,220.126 152.474,211.819 152.744,211.479 154.778,210.956 158.32,210.743 
		156.626,204.158 155.918,204.494 157.252,209.675 153.711,209.889 151.678,210.411 151.408,210.751 153.805,220.063 	"/>
	<polygon fill="#263056" points="166.667,217.713 165.658,218.165 165.834,222.918 148.838,227.289 148.734,228.657 
		166.902,223.985 	"/>
	<polygon fill="#263056" points="159.509,192.954 155.707,193.28 147.795,195.314 147.526,195.656 149.921,204.969 150.32,205.136 
		150.73,205.03 148.592,196.726 148.863,196.383 156.774,194.349 160.577,194.024 157.765,188.468 157.299,188.587 	"/>
	<polygon fill="#263056" points="173.553,183.196 173.546,183.063 172.974,182.56 172.874,182.597 	"/>
	<polygon fill="#263056" points="167.395,184.902 167.381,185.644 174.218,193.288 174.21,193.152 168.449,186.71 168.488,184.442 	
		"/>
	<polygon fill="#263056" points="160.747,188.915 159.426,188.251 158.851,188.491 161.776,189.966 	"/>
	<polygon fill="#263056" points="187.01,213.395 182.042,201.571 181.673,181.849 182.536,178.54 181.025,179.177 180.606,180.781 
		180.974,200.504 185.941,212.327 187.902,214.55 180.783,217.54 180.89,219.012 188.97,215.615 	"/>
	<polygon fill="#263056" points="49.344,50.89 50.637,56.585 30.532,66.628 30.277,63.982 14.276,31.948 12.287,30.103 
		20.67,25.915 21.029,28.575 35.604,57.754 36.644,57.894 46.115,53.163 	"/>
	<polygon fill="#263056" points="66.722,9.963 66.431,12.662 75.337,47.283 72.355,50.674 57.818,54.414 53.572,52.881 
		44.667,18.258 43.11,16.036 52.184,13.701 51.895,16.4 60.019,47.99 61.006,48.346 66.636,46.897 67.329,46.109 59.205,14.52 
		57.646,12.296 	"/>
	<path fill="#263056" d="M88.479,46.131l1.1,2.421l-9.355,0.556l0.805-2.535L78.9,10.829l-1.104-2.479l19.664-1.172l3.875,2.314
		l1.065,17.873l-3.574,2.759l-10.393,0.618L87.6,31.384L88.479,46.131z M87.228,25.131l0.901,0.539l5.717-0.34l0.83-0.642
		l-0.687-11.561l-0.9-0.539l-5.719,0.341l-0.83,0.642L87.228,25.131z"/>
	<polygon fill="#263056" points="115.199,46.415 115.961,48.963 106.618,48.247 107.761,45.845 110.494,10.142 109.736,7.535 
		119.082,8.252 117.936,10.712 	"/>
	<polygon fill="#263056" points="128.484,48.38 128.847,51.013 119.722,48.875 121.218,46.678 129.39,11.813 129.038,9.121 
		137.232,11.042 140.438,33.884 140.881,37.69 141.367,34.102 145.693,15.634 145.345,12.942 154.468,15.081 152.959,17.337 
		144.789,52.201 145.152,54.834 136.957,52.915 133.754,30.072 133.311,26.266 132.824,29.855 	"/>
	<polygon fill="#263056" points="168.348,65.7 148.068,56.016 150.023,54.133 165.459,21.82 165.667,19.169 185.946,28.854 
		184.753,34.572 181.486,32.355 171.855,27.755 170.816,27.916 165.825,38.367 166.353,39.273 169.016,40.545 172.662,41.567 
		169.91,47.326 166.825,45.131 164.162,43.86 163.125,44.02 158.133,54.47 158.66,55.377 168.291,59.976 172.07,61.126 	"/>
	<polygon fill="#263056" points="49.771,193.487 32.762,220.403 32.802,222.237 25.274,219.413 26.51,218.058 29.289,199.587 
		29.796,197.847 29.035,199.49 19.109,215.282 19.148,217.114 11.621,214.29 12.856,212.935 17.58,181.522 17.382,178.362 
		24.591,181.066 23.237,182.544 19.843,203.431 19.335,205.168 20.097,203.525 30.913,185.753 31.099,183.507 38.245,186.188 
		36.91,188.002 33.495,208.551 32.99,210.29 33.751,208.647 44.739,190.606 44.688,188.605 51.897,191.308 	"/>
	<polygon fill="#263056" points="54.908,193.464 54.585,191.144 61.815,192.511 60.668,194.554 58.271,207.231 58.843,207.866 
		63.264,208.701 64.029,208.319 66.425,195.64 66.169,193.333 73.398,194.7 72.249,196.741 66.44,227.474 66.774,229.745 
		59.543,228.379 60.614,226.375 63.012,213.695 62.438,213.062 58.019,212.228 57.255,212.607 54.856,225.285 55.191,227.556 
		47.96,226.188 49.1,224.198 	"/>
	<polygon fill="#263056" points="82.095,229.116 82.64,231.344 75.313,230.663 76.258,228.572 79.146,197.427 78.605,195.15 
		85.933,195.827 84.981,197.97 	"/>
	<polygon fill="#263056" points="109.199,202.994 109.967,205.157 102.608,205.218 103.271,203.044 103.258,201.29 102.57,200.778 
		98.073,200.819 97.397,201.339 97.483,211.455 98.168,211.964 106.343,211.896 109.293,214.091 109.424,229.678 106.513,231.922 
		94.724,232.022 91.707,229.828 91.67,225.337 90.972,223.175 98.33,223.114 97.598,225.289 97.613,227.042 98.299,227.553 
		102.797,227.515 103.475,226.993 103.389,216.878 102.702,216.368 94.594,216.434 91.578,214.241 91.444,198.603 94.424,196.356 
		106.212,196.259 109.16,198.454 	"/>
	<polygon fill="#263056" points="137.97,226.306 140.871,228.534 132.355,229.639 132.613,227.938 125.95,216.835 124.307,221.104 
		125.244,228.323 126.273,230.429 118.977,231.376 119.434,229.08 115.412,198.11 114.383,196.005 121.68,195.06 121.223,197.356 
		122.578,207.798 122.584,211.546 123.592,207.665 128.198,195.515 127.626,194.286 136.277,193.163 133.911,196.124 
		128.35,210.433 	"/>
	<polygon fill="#263056" points="165.314,222.532 148.221,226.925 148.394,224.591 140.604,194.298 139.337,192.388 156.43,187.989 
		158.72,192.516 155.623,192.781 147.506,194.868 146.974,195.538 149.494,205.335 150.282,205.666 152.526,205.089 155.225,203.81 
		156.609,209.207 153.631,209.388 151.388,209.965 150.855,210.636 153.377,220.434 154.164,220.764 162.283,218.677 
		165.125,217.411 	"/>
	<polygon fill="#263056" points="180.472,200.609 185.51,212.601 187.059,214.356 180.274,217.206 180.108,214.871 174.988,202.688 
		161.047,188.503 158.988,187.466 166.902,184.141 166.873,185.832 174.261,194.091 175.131,195.462 174.763,193.88 
		174.034,182.823 172.744,181.685 180.725,178.333 180.101,180.722 	"/>
	<g>
		<path fill="#263056" d="M79.385,246.424c0.011,0.298,0,0.606-0.012,0.897c-0.768,0-1.664,0-2.389,0
			c-0.706,0-1.474,0.01-2.369,0.01c0-0.288,0-0.597,0.01-0.896l1.504-0.031c0.032,0,0.055-0.033,0.055-0.065
			c0-1.355,0-2.966,0-4.095c-0.512,0.061-1.004,0.137-1.644,0.221c-0.054-0.288-0.107-0.596-0.15-0.885
			c1.12-0.311,3.425-1.164,3.532-1.164c0.021,0,0.032,0.012,0.032,0.055c0,1.686-0.02,4.045-0.032,5.934L79.385,246.424z"/>
		<path fill="#263056" d="M83.995,246.853c-0.438,0.404-0.992,0.575-1.665,0.575c-0.608,0-1.12-0.194-1.484-0.513
			c-0.555-0.491-0.992-1.164-0.992-2.679c0-1.622,0.437-2.552,1.044-3.136c0.492-0.471,1.068-0.661,1.719-0.661
			c0.736,0,1.227,0.245,1.58,0.618c0.415,0.438,0.863,1.268,0.863,2.848C85.062,245.345,84.604,246.265,83.995,246.853z
			 M82.042,241.567c-0.192,0.281-0.331,1.443-0.331,2.539c0,1.067,0.119,1.893,0.256,2.146c0.128,0.235,0.278,0.344,0.481,0.344
			c0.191,0,0.331-0.064,0.469-0.279c0.193-0.287,0.289-1.045,0.289-2.168c0-1.257-0.096-2.249-0.256-2.517
			c-0.118-0.224-0.236-0.353-0.459-0.353C82.288,241.28,82.181,241.354,82.042,241.567z"/>
		<path fill="#263056" d="M89.576,246.853c-0.437,0.404-0.992,0.575-1.665,0.575c-0.608,0-1.121-0.194-1.483-0.513
			c-0.555-0.491-0.992-1.164-0.992-2.679c0-1.622,0.437-2.552,1.045-3.136c0.492-0.471,1.068-0.661,1.718-0.661
			c0.738,0,1.227,0.245,1.58,0.618c0.416,0.438,0.864,1.268,0.864,2.848C90.644,245.345,90.186,246.265,89.576,246.853z
			 M87.625,241.567c-0.193,0.281-0.332,1.443-0.332,2.539c0,1.067,0.119,1.893,0.257,2.146c0.128,0.235,0.277,0.344,0.479,0.344
			c0.192,0,0.332-0.064,0.471-0.279c0.192-0.287,0.288-1.045,0.288-2.168c0-1.257-0.096-2.249-0.257-2.517
			c-0.117-0.224-0.233-0.353-0.458-0.353C87.869,241.28,87.762,241.354,87.625,241.567z"/>
		<path fill="#263056" d="M93.131,241.302c0-0.288,0.012-0.617,0.012-0.906c0.767-0.013,1.706-0.021,2.591-0.021
			c0.481,0,0.973,0,1.56,0.182c0.875,0.276,1.439,1.152,1.439,2.059c0,0.832-0.555,1.622-1.259,1.975
			c-0.491,0.258-1.237,0.34-1.494,0.34c-0.139,0-0.428,0-0.502-0.011l-0.009,1.485l0.97,0.031c0,0.277,0,0.608-0.012,0.887
			c-0.534,0-1.269,0-1.92,0c-0.448,0-0.949,0-1.354,0c0-0.278,0-0.609,0.011-0.887l0.5-0.031c0.032,0,0.043-0.021,0.043-0.043
			v-5.037L93.131,241.302z M95.478,243.917c0,0.096,0.192,0.104,0.375,0.104c0.266,0,0.534-0.094,0.726-0.283
			c0.224-0.215,0.354-0.602,0.354-1.07c0-0.788-0.483-1.43-1.09-1.43c-0.161,0-0.298,0.013-0.341,0.031L95.478,243.917z"/>
		<path fill="#263056" d="M99.107,241.302c0-0.309,0-0.609,0.012-0.906c0.724-0.013,1.631-0.021,2.464-0.021
			c0.607,0,0.938,0,1.568,0.148c0.926,0.203,1.525,1.034,1.525,1.721c0,0.906-0.576,1.543-1.323,1.855v0.063
			c0.468,0.226,0.724,0.833,1.206,1.824c0.117,0.267,0.193,0.374,0.32,0.384l0.51,0.064c0,0.287-0.008,0.588-0.008,0.887
			c-0.192,0-0.578,0.01-0.779,0.01c-0.236,0-1.144,0.011-1.344,0.011c-0.277-0.478-0.791-1.718-1.004-2.22
			c-0.139-0.33-0.332-0.459-0.576-0.459c-0.13,0-0.215,0.01-0.246,0.021l-0.01,1.72l0.574,0.031c-0.01,0.3-0.01,0.588-0.01,0.887
			c-0.416,0-1.002,0-1.527,0c-0.447,0-0.949,0-1.354,0c0.012-0.299,0.012-0.587,0.012-0.887l0.521-0.031
			c0.023,0,0.032-0.021,0.032-0.033l0.012-5.047L99.107,241.302z M101.434,243.786c0.044,0.012,0.106,0.012,0.256,0.012
			c0.715,0,1.151-0.5,1.151-1.205c0-0.779-0.479-1.355-1.045-1.355c-0.182,0-0.276,0.013-0.341,0.031L101.434,243.786z"/>
		<path fill="#263056" d="M106.406,246.542c-0.65-0.65-0.959-1.492-0.959-2.625c0-1.41,0.702-2.53,1.578-3.063
			c0.662-0.408,1.324-0.576,2.145-0.576c0.673,0,1.293,0.168,1.846,0.523c0.824,0.521,1.357,1.631,1.357,2.879
			c0,1.037-0.363,2.135-1.089,2.829c-0.673,0.619-1.515,0.918-2.553,0.918C107.782,247.428,106.93,247.075,106.406,246.542z
			 M109.865,246.083c0.372-0.481,0.512-1.271,0.512-2.156c0-0.863-0.183-1.631-0.439-2.124c-0.213-0.416-0.554-0.616-0.951-0.616
			c-0.436,0-0.732,0.158-0.979,0.457c-0.31,0.385-0.542,1.142-0.542,2.154c0,1.081,0.146,1.773,0.521,2.232
			c0.299,0.361,0.639,0.479,0.971,0.479C109.298,246.51,109.587,246.456,109.865,246.083z"/>
		<path fill="#263056" d="M113.888,246.542c-0.651-0.65-0.96-1.492-0.96-2.625c0-1.41,0.705-2.53,1.578-3.063
			c0.662-0.408,1.324-0.576,2.146-0.576c0.673,0,1.29,0.168,1.847,0.523c0.822,0.521,1.355,1.631,1.355,2.879
			c0,1.037-0.363,2.135-1.088,2.829c-0.672,0.619-1.517,0.918-2.553,0.918C115.264,247.428,114.411,247.075,113.888,246.542z
			 M117.344,246.083c0.376-0.481,0.514-1.271,0.514-2.156c0-0.863-0.182-1.631-0.438-2.124c-0.212-0.416-0.555-0.616-0.949-0.616
			c-0.437,0-0.735,0.158-0.982,0.457c-0.308,0.385-0.544,1.142-0.544,2.154c0,1.081,0.15,1.773,0.525,2.232
			c0.297,0.361,0.638,0.479,0.971,0.479C116.78,246.51,117.068,246.456,117.344,246.083z"/>
		<path fill="#263056" d="M120.291,241.292c0-0.299,0-0.607,0.012-0.909c0.395,0,0.949,0,1.407,0c0.331,0,2.254,0,2.486,0
			c0.448-0.009,0.823-0.009,1.058-0.009c0.062,0.662,0.105,1.324,0.148,1.982c-0.319,0.057-0.682,0.1-1.045,0.131l-0.213-0.908
			c-0.021-0.108-0.055-0.16-0.213-0.192c-0.151-0.019-0.492-0.075-1.133-0.075c-0.032,0-0.064,0.012-0.086,0.012l-0.01,2.305
			c0.352,0,0.673-0.012,1.004-0.012c0.192-0.009,0.211-0.073,0.232-0.202l0.065-0.437c0.341-0.012,0.683,0,1.015,0.02
			c-0.011,0.366-0.023,0.758-0.023,1.145c-0.008,0.395-0.008,0.776-0.008,1.1c-0.322,0.01-0.652,0.018-1.006,0.018l-0.043-0.489
			c-0.021-0.147-0.084-0.202-0.254-0.202c-0.32-0.02-0.641-0.031-0.982-0.031l-0.012,1.846l1.142,0.031c0,0.287,0,0.609-0.011,0.918
			c-0.575,0-1.365-0.01-2.048-0.01c-0.49,0-1.036,0.01-1.472,0.01c0-0.301,0-0.619,0.01-0.907l0.545-0.021
			c0.031-0.012,0.053-0.021,0.053-0.043l-0.01-5.037L120.291,241.292z"/>
	</g>
</g>
</svg>
