<?xml version="1.0" encoding="utf-8"?>
<!-- Generator: Adobe Illustrator 22.1.0, SVG Export Plug-In . SVG Version: 6.00 Build 0)  -->
<svg version="1.1" id="Layer_1" xmlns="http://www.w3.org/2000/svg" xmlns:xlink="http://www.w3.org/1999/xlink" x="0px" y="0px"
	 viewBox="0 0 111.2 29.9" style="enable-background:new 0 0 111.2 29.9;" xml:space="preserve">
<style type="text/css">
	.st0{fill:#243055;}
</style>
<g>
	<polygon class="st0" points="6.5,1.8 6.5,24.8 7,25.1 7.2,25.1 7.2,2.6 7.9,0.6 7,0.6 	"/>
	<polygon class="st0" points="17.3,25.6 16.4,29.2 1,29.2 0.7,29.9 17.1,29.9 18.2,25.5 	"/>
</g>
<g>
	<polygon class="st0" points="25.9,1.9 25.9,24.8 26.3,25.1 26.5,25.1 26.5,2.6 27.3,0.6 26.3,0.6 	"/>
	<polygon class="st0" points="37,0.6 36.5,1.9 36.5,27.3 33.7,29.2 22.9,29.2 20.9,27.9 20.9,28 23.6,29.9 34.4,29.9 37.2,28 
		37.2,2.6 37.9,0.6 	"/>
</g>
<g>
	<polygon class="st0" points="47.3,3.9 46.8,4.2 46.8,12.1 47.3,12.4 47.5,12.4 47.5,4.9 48,4.6 51.6,4.6 51.6,4.2 51.2,3.9 	"/>
	<polygon class="st0" points="57.5,2 57.5,14.6 54.7,16.6 47.3,16.6 46.8,16.9 46.8,27.2 47.6,29.2 41.4,29.2 41.1,29.9 48.3,29.9 
		47.5,27.9 47.5,17.6 48,17.2 55.4,17.2 58.2,15.4 58.2,2.5 	"/>
</g>
<polygon class="st0" points="67.2,27.9 67.2,2.6 68,0.6 67,0.6 66.5,1.9 66.5,27.2 67.3,29.2 61.1,29.2 60.8,29.9 68,29.9 "/>
<g>
	<polygon class="st0" points="82.8,15.2 83,15.7 82.9,15.3 82.9,14.6 77.5,0.7 77.5,0.6 77.1,0.6 	"/>
	<polygon class="st0" points="77.6,15.1 77,13.8 76.8,13.2 76.9,13.7 76.9,27.2 77.7,29.2 71.4,29.2 71.1,29.9 78.3,29.9 77.6,27.9 
			"/>
	<polygon class="st0" points="89.4,27.9 89.4,2.6 90.2,0.6 89.2,0.6 88.8,1.9 88.8,27.2 89.6,29.2 83.6,29.2 83.8,29.8 83.8,29.9 
		90.2,29.9 	"/>
</g>
<g>
	<polygon class="st0" points="110.1,4.3 107,3.9 99.5,3.9 99.1,4.2 99.1,12.1 99.5,12.4 99.8,12.4 99.8,4.9 100.3,4.5 107.8,4.5 
		110.8,5 109.7,0.6 109.2,0.6 	"/>
	<polygon class="st0" points="109,29.2 93.6,29.2 93.4,29.9 109.7,29.9 110.8,25.4 109.9,25.6 	"/>
	<polygon class="st0" points="99.8,25 99.8,17.5 100.3,17.2 102.3,17.2 105.1,17.7 105.1,12.7 104.5,12.9 104.5,17 101.5,16.5 
		99.5,16.5 99.1,16.8 99.1,24.8 99.5,25 	"/>
</g>
<g>
	<path class="st0" d="M17.2,24.9l-1,4H0.2l0.7-1.8V1.8L0.2,0h6.6L6.3,1.8v23.1l0.6,0.4h7.5L17.2,24.9z"/>
	<path class="st0" d="M36.9,0l-0.7,1.8v25.4L33.6,29H22.9l-2.6-1.8V1.8L19.6,0h6.6l-0.7,1.8v23.1l0.6,0.4h4.1l0.6-0.4V1.8L30.3,0
		H36.9z"/>
	<path class="st0" d="M46.6,27.2l0.7,1.8h-6.6l0.7-1.8V1.8L40.6,0h14l2.6,1.8v12.7l-2.6,1.8h-7.4l-0.6,0.4V27.2z M46.6,12.3l0.6,0.4
		h4.1l0.6-0.4V4.1l-0.6-0.4h-4.1l-0.6,0.4V12.3z"/>
	<path class="st0" d="M66.3,27.2L67,29h-6.6l0.7-1.8V1.8L60.3,0H67l-0.7,1.8V27.2z"/>
	<path class="st0" d="M76.6,27.2l0.7,1.8h-6.6l0.7-1.8V1.8L70.6,0h6l5.9,15.3l0.9,2.6l-0.2-2.6V1.8L82.5,0h6.6l-0.7,1.8v25.4
		l0.7,1.8h-6l-5.9-15.3l-0.9-2.6l0.2,2.6V27.2z"/>
	<path class="st0" d="M108.8,29H92.9l0.7-1.8V1.8L92.9,0h15.9l1,4L107,3.6h-7.6L98.8,4v8.2l0.6,0.4h2.1l2.6-0.5v4.5l-2.6-0.5h-2.1
		l-0.6,0.4v8.2l0.6,0.4h7.6l2.8-0.4L108.8,29z"/>
</g>
</svg>
