<?xml version="1.0" encoding="utf-8"?>
<!-- Generator: Adobe Illustrator 16.0.0, SVG Export Plug-In . SVG Version: 6.00 Build 0)  -->
<!DOCTYPE svg PUBLIC "-//W3C//DTD SVG 1.1//EN" "http://www.w3.org/Graphics/SVG/1.1/DTD/svg11.dtd">
<svg version="1.1" id="Layer_1" xmlns="http://www.w3.org/2000/svg" xmlns:xlink="http://www.w3.org/1999/xlink" x="0px" y="0px"
	 width="45px" height="45px" viewBox="0 0 45 45" enable-background="new 0 0 45 45" xml:space="preserve">
<path fill="#4A494A" d="M-61.592,13.014c-12.4,0-22.483,10.087-22.483,22.486c0,12.403,10.083,22.486,22.483,22.486
	c12.402,0,22.491-10.083,22.491-22.486C-39.101,23.101-49.189,13.014-61.592,13.014z M-48.571,27.316c0,0.064,0.01,0.232-0.13,0.417
	c-0.611,0.828-1.263,1.563-2.082,2.187c-0.117,0.082-0.322,0.178-0.322,0.345c0,4.338-1.105,8.655-4.262,11.796
	c-4.024,3.992-10.054,5.077-15.41,3.6c-1.036-0.281-2.022-0.684-2.979-1.192c-0.314-0.168-0.618-0.346-0.923-0.55
	c-0.08-0.06-0.139-0.116-0.07-0.155c0.07-0.031,0.115-0.037,0.354,0c1.494,0.146,3.043-0.076,4.459-0.572
	c0.781-0.272,2.449-0.818,2.936-1.556c0.008-0.016,0.023-0.016,0.033-0.033c-0.197-0.051-0.389-0.051-0.588-0.079
	c-1.453-0.419-3.393-1.145-4.299-3.601c-0.053-0.142,0-0.22,0.15-0.19c1.201,0.094,1.629,0.029,2.049-0.061
	c-0.234-0.039-0.479-0.121-0.693-0.215c-1.836-0.695-3.174-2.483-3.417-4.413c-0.027-0.229-0.043-0.418-0.031-0.625
	c0.01-0.141,0.078-0.188,0.202-0.104c0.939,0.484,1.994,0.602,2.082,0.582c-0.234-0.186-0.453-0.385-0.668-0.582
	c-1.585-1.511-2.199-4.571-0.928-6.478c0.1-0.153,0.168-0.153,0.295-0.008c2.904,3.313,6.492,4.854,10.811,5.5
	c0.111,0.014,0.121,0,0.107-0.129c-0.113-0.761-0.129-1.501,0.053-2.258c0.192-0.779,0.566-1.521,1.07-2.14
	c0.49-0.603,1.094-1.102,1.787-1.462c0.687-0.355,1.443-0.576,2.218-0.624c0.792-0.055,1.6,0.077,2.337,0.378
	c0.562,0.23,1.062,0.54,1.523,0.934c0.098,0.08,0.181,0.178,0.269,0.278c0.061,0.061,0.131,0.084,0.219,0.061
	c1.105-0.28,2.148-0.666,3.146-1.206c0.049-0.023,0.088-0.033,0.141-0.008c0.047,0.029,0.031,0.086,0.012,0.137
	c-0.18,0.586-0.504,1.13-0.886,1.604c-0.251,0.312-0.884,1.083-1.308,1.155c0.896-0.15,1.818-0.378,2.646-0.757
	c0.106-0.049,0.097-0.066,0.097,0C-48.571,27.293-48.571,27.305-48.571,27.316z"/>
<path fill-rule="evenodd" clip-rule="evenodd" fill="#4A494A" d="M-61.534,35.492c-0.031,0.021-0.068,0.021-0.107,0
	C-61.603,35.492-61.565,35.492-61.534,35.492L-61.534,35.492z"/>
<path fill="#4A494A" d="M-121.751,44.986c-12.397,0-22.486,10.087-22.486,22.486c0,12.403,10.089,22.486,22.486,22.486
	c12.4,0,22.49-10.083,22.49-22.486C-99.262,55.073-109.352,44.986-121.751,44.986z M-115.516,58.324c0,0.188-0.152,0.34-0.342,0.34
	h-2.703c-0.658,0-1.195,0.539-1.195,1.202v2.83h3.85c0.195,0,0.35,0.174,0.336,0.375l-0.336,3.989
	c-0.014,0.17-0.168,0.309-0.34,0.309h-3.51v13.242c0,0.191-0.156,0.338-0.342,0.338h-4.839c-0.189,0-0.34-0.146-0.34-0.338V67.58
	v-0.211h-2.416c-0.195,0-0.345-0.158-0.345-0.34v-3.995c0-0.184,0.149-0.338,0.345-0.338h2.416V58.85
	c0-2.68,2.174-4.851,4.857-4.851h4.563c0.189,0,0.342,0.148,0.342,0.34V58.324z"/>
<g>
	<path fill="#4A494A" d="M177.088-97.532c-6.178,0-11.199,5.029-11.199,11.205c0,2.363,0.729,4.626,2.111,6.548
		c0.247,0.341,0.29,0.794,0.116,1.183l-1.294,2.85l3.713-1.021c0.102-0.029,0.209-0.045,0.313-0.045c0.209,0,0.415,0.059,0.6,0.163
		c1.709,1.001,3.66,1.526,5.641,1.526c6.179,0,11.204-5.025,11.204-11.205C188.292-92.503,183.267-97.532,177.088-97.532z
		 M183.751-81.982c-0.416,1.007-1.457,1.659-2.503,1.86c-1.004,0.188-1.834-0.127-2.762-0.438c-0.822-0.273-1.623-0.672-2.373-1.127
		c-1.482-0.909-2.77-2.127-3.799-3.53c-0.313-0.43-0.604-0.874-0.877-1.334c-0.352-0.606-0.672-1.247-0.838-1.935
		c-0.068-0.281-0.104-0.578-0.107-0.874c-0.014-1.041,0.383-2.087,1.205-2.755c0.479-0.388,1.184-0.558,1.713-0.257
		c0.586,0.328,0.887,1.158,1.15,1.739c0.217,0.453,0.455,1.05,0.365,1.559c-0.082,0.51-0.488,0.94-0.807,1.32
		c-0.221,0.255-0.252,0.471-0.07,0.75c1.064,1.772,2.541,3.059,4.467,3.827c0.265,0.103,0.468,0.071,0.636-0.135
		c0.341-0.413,0.665-1.219,1.18-1.427c0.669-0.275,1.41,0.103,1.975,0.444c0.532,0.315,1.416,0.704,1.563,1.356
		C183.935-82.617,183.872-82.281,183.751-81.982z"/>
	<path fill="#4A494A" d="M176.027-107.75c-12.397,0-22.486,10.085-22.486,22.484c0,12.399,10.089,22.487,22.486,22.487
		c12.399,0,22.489-10.088,22.489-22.487C198.517-97.665,188.427-107.75,176.027-107.75z M177.088-72.752
		c-2.23,0-4.43-0.549-6.391-1.601l-5.688,1.562c-0.102,0.027-0.204,0.039-0.313,0.039c-0.342,0-0.67-0.146-0.901-0.414
		c-0.297-0.352-0.365-0.84-0.174-1.261l2.06-4.54c-1.416-2.196-2.167-4.726-2.167-7.36c0-7.485,6.095-13.575,13.575-13.575
		c7.484,0,13.578,6.09,13.578,13.575C190.666-78.84,184.572-72.752,177.088-72.752z"/>
</g>
<path fill="#4A494A" d="M108.852-107.75c-12.4,0-22.483,10.085-22.483,22.484c0,12.399,10.083,22.487,22.483,22.487
	c12.402,0,22.491-10.088,22.491-22.487C131.343-97.665,121.254-107.75,108.852-107.75z M123.682-77.497
	c-0.262,0.537-0.732,0.833-1.262,1.032c-0.534,0.205-1.074,0.436-1.652,0.473c-0.795,0.051-1.221,0.396-1.342,1.226
	c-0.117,0.792-0.353,0.903-1.16,0.841c-0.191-0.016-0.377-0.051-0.564-0.082c-1.583-0.284-3.063-0.123-4.357,0.924
	c-0.253,0.201-0.54,0.375-0.812,0.552c-2.214,1.437-4.473,1.599-6.78,0.254c-0.628-0.369-1.226-0.79-1.841-1.192
	c-0.504-0.329-1.047-0.514-1.646-0.604c-0.963-0.142-1.881,0.07-2.816,0.174c-0.467,0.054-0.938-0.084-0.961-0.581
	c-0.068-1.191-0.795-1.485-1.804-1.593c-0.464-0.053-0.927-0.242-1.37-0.426c-0.478-0.203-0.916-0.487-1.143-0.997
	c0-0.152,0-0.307,0-0.461c0.182-0.223,0.387-0.405,0.694-0.464c2.421-0.482,4.04-2.024,5.257-4.051
	c1.03-1.706,0.865-2.094-1.021-2.762c-0.117-0.039-0.225-0.07-0.33-0.115c-0.41-0.167-0.815-0.344-1.156-0.64
	c-0.843-0.736-0.344-1.794,0.66-2.039c0.729-0.175,1.364,0.296,2.068,0.382c0.473,0.059,0.666-0.099,0.605-0.604
	c-0.146-1.296-0.141-2.607-0.082-3.91c0.115-2.49,1.34-4.383,3.411-5.614c3.029-1.793,6.193-1.815,9.244-0.027
	c1.902,1.118,3.129,2.806,3.398,5.071c0.167,1.473,0.102,2.953-0.014,4.428c-0.049,0.638,0.08,0.759,0.712,0.609
	c0.79-0.187,1.443-0.59,2.267-0.229c0.435,0.191,0.818,0.607,0.805,1.082c-0.012,0.326-0.2,0.629-0.441,0.844
	c-0.383,0.326-0.877,0.51-1.329,0.697c-0.356,0.145-0.728,0.257-1.075,0.42c-0.718,0.334-0.922,0.775-0.587,1.483
	c1.155,2.446,2.864,4.307,5.614,4.951c0.334,0.082,0.606,0.22,0.811,0.489C123.682-77.804,123.682-77.649,123.682-77.497z"/>
<g>
	<path fill="#4A494A" d="M241.556-88.701c-0.261-0.15-0.498,0.04-0.498,0.334v6.727c0,0.295,0.233,0.483,0.488,0.346l5.974-3.277
		c0.271-0.146,0.313-0.532,0.055-0.682L241.556-88.701z"/>
	<path fill="#4A494A" d="M243.499-107.512c-12.389,0-22.479,10.085-22.479,22.485c0,12.397,10.091,22.483,22.479,22.483
		c12.406,0,22.495-10.086,22.495-22.483C265.994-97.427,255.905-107.512,243.499-107.512z M256.969-81.416
		c0,3.188-2.583,5.771-5.772,5.771H236.22c-3.186,0-5.774-2.582-5.774-5.771v-7.022c0-3.189,2.589-5.771,5.774-5.771h14.977
		c3.189,0,5.772,2.582,5.772,5.771V-81.416z"/>
</g>
<path fill="#4A494A" d="M255.047-26.289c0,3.219-2.604,5.82-5.816,5.82h-11.179c-3.207,0-5.815-2.602-5.815-5.82v-11.175
	c0-3.211,2.608-5.818,5.815-5.818h11.179c3.213,0,5.816,2.607,5.816,5.818V-26.289L255.047-26.289z M257.702-37.464
	c0-4.677-3.79-8.471-8.472-8.471h-11.179c-4.673,0-8.467,3.794-8.467,8.471v11.175c0,4.687,3.794,8.473,8.467,8.473h11.179
	c4.682,0,8.472-3.786,8.472-8.473V-37.464L257.702-37.464z M243.688-27.248c-2.451,0-4.447-1.993-4.447-4.444
	c0-2.454,1.996-4.452,4.447-4.452c2.449,0,4.453,1.998,4.453,4.452C248.142-29.241,246.138-27.248,243.688-27.248L243.688-27.248z
	 M243.688-38.641c-3.825,0-6.946,3.119-6.946,6.948c0,3.83,3.121,6.941,6.946,6.941c3.831,0,6.944-3.111,6.944-6.941
	C250.633-35.521,247.52-38.641,243.688-38.641L243.688-38.641z M251.04-40.755c-0.912,0-1.654,0.738-1.654,1.651
	c0,0.911,0.742,1.655,1.654,1.655c0.911,0,1.65-0.744,1.65-1.655C252.69-40.017,251.951-40.755,251.04-40.755L251.04-40.755z
	 M243.499-9.354c-12.311,0-22.333-10.021-22.333-22.338s10.022-22.34,22.333-22.34c12.324,0,22.351,10.023,22.351,22.34
	S255.823-9.354,243.499-9.354L243.499-9.354z"/>
<g>
	<path fill="#4A494A" d="M-95-38.702c-11.067,0-20.069,9.002-20.069,20.068c0,11.067,9.002,20.07,20.069,20.07
		c11.066,0,20.07-9.003,20.07-20.07C-74.93-29.7-83.934-38.702-95-38.702L-95-38.702z M-95,3.853
		c-12.399,0-22.487-10.083-22.487-22.486c0-12.399,10.088-22.486,22.487-22.486c12.396,0,22.487,10.087,22.487,22.486
		C-72.513-6.23-82.604,3.853-95,3.853L-95,3.853z"/>
	<path fill="#4A494A" d="M-82.078-26.841c-0.832,0.379-1.746,0.606-2.646,0.757c0.426-0.072,1.057-0.844,1.307-1.155
		c0.383-0.475,0.701-1.019,0.881-1.604c0.021-0.051,0.041-0.102-0.006-0.137c-0.061-0.025-0.096-0.016-0.139,0.008
		c-1.002,0.54-2.041,0.926-3.145,1.206c-0.092,0.023-0.158,0-0.219-0.061c-0.092-0.101-0.176-0.198-0.273-0.278
		c-0.463-0.394-0.963-0.703-1.524-0.934c-0.739-0.301-1.541-0.427-2.335-0.378c-0.772,0.048-1.531,0.269-2.216,0.624
		c-0.685,0.36-1.304,0.865-1.791,1.462c-0.505,0.627-0.875,1.364-1.068,2.144c-0.182,0.753-0.168,1.493-0.055,2.254
		c0.018,0.129,0.007,0.148-0.108,0.129c-4.32-0.646-7.9-2.188-10.807-5.5c-0.126-0.146-0.196-0.146-0.298,0.008
		c-1.274,1.906-0.657,4.967,0.934,6.478c0.212,0.203,0.43,0.396,0.664,0.582c-0.086,0.02-1.143-0.098-2.086-0.582
		c-0.124-0.078-0.19-0.037-0.201,0.104c-0.011,0.207,0.008,0.4,0.035,0.625c0.245,1.93,1.584,3.718,3.415,4.413
		c0.217,0.094,0.458,0.176,0.693,0.215c-0.418,0.09-0.848,0.154-2.045,0.061c-0.148-0.029-0.205,0.049-0.148,0.19
		c0.899,2.456,2.841,3.182,4.295,3.601c0.196,0.034,0.391,0.034,0.586,0.079c-0.011,0.018-0.025,0.018-0.035,0.033
		c-0.483,0.737-2.157,1.283-2.933,1.556c-1.417,0.496-2.961,0.718-4.459,0.572c-0.238-0.037-0.289-0.031-0.353,0
		c-0.067,0.039-0.01,0.096,0.067,0.155c0.305,0.204,0.616,0.382,0.93,0.556c0.95,0.503,1.943,0.905,2.979,1.187
		c5.355,1.478,11.383,0.393,15.404-3.6c3.158-3.135,4.264-7.458,4.264-11.796c0-0.167,0.199-0.257,0.32-0.345
		c0.822-0.623,1.475-1.358,2.086-2.187c0.141-0.185,0.129-0.351,0.129-0.417c0-0.012,0-0.023,0-0.023
		C-81.98-26.907-81.969-26.89-82.078-26.841L-82.078-26.841z"/>
	<path fill-rule="evenodd" clip-rule="evenodd" fill="#4A494A" d="M-90.252-29.395c-0.027,0.021-0.07,0.021-0.109,0
		C-90.322-29.395-90.279-29.395-90.252-29.395L-90.252-29.395z"/>
</g>
<g>
	<path fill="#4A494A" d="M-39.099-42.541c-11.067,0-20.076,9.002-20.076,20.068c0,11.067,9.009,20.07,20.076,20.07
		c11.066,0,20.068-9.003,20.068-20.07C-19.03-33.539-28.032-42.541-39.099-42.541L-39.099-42.541z M-39.099,0.014
		c-12.404,0-22.485-10.083-22.485-22.486c0-12.399,10.081-22.486,22.485-22.486c12.395,0,22.481,10.087,22.481,22.486
		C-16.617-10.069-26.704,0.014-39.099,0.014L-39.099,0.014z"/>
	<path fill-rule="evenodd" clip-rule="evenodd" fill="#4A494A" d="M-42.621-22.365v13.031c0,0.191,0.148,0.338,0.335,0.338h4.84
		c0.188,0,0.335-0.146,0.335-0.338v-13.242h3.51c0.179,0,0.323-0.139,0.339-0.309l0.34-3.989c0.014-0.201-0.143-0.375-0.34-0.375
		h-3.849v-2.83c0-0.663,0.543-1.202,1.206-1.202h2.699c0.191,0,0.34-0.152,0.34-0.336v-3.989c0-0.191-0.148-0.34-0.34-0.34h-4.563
		c-2.684,0-4.853,2.171-4.853,4.851v3.847h-2.426c-0.188,0-0.341,0.154-0.341,0.346v3.987c0,0.186,0.152,0.34,0.341,0.34h2.426
		V-22.365L-42.621-22.365z"/>
</g>
<path fill="#4A494A" d="M-26.586-105.334c-11.067,0-20.076,9.001-20.076,20.068c0,11.069,9.009,20.075,20.076,20.075
	c11.066,0,20.068-9.006,20.068-20.075C-6.518-96.333-15.52-105.334-26.586-105.334L-26.586-105.334z M-26.586-62.779
	c-12.404,0-22.485-10.088-22.485-22.487c0-12.398,10.081-22.484,22.485-22.484c12.395,0,22.481,10.085,22.481,22.484
	C-4.104-72.867-14.191-62.779-26.586-62.779L-26.586-62.779z"/>
<path fill-rule="evenodd" clip-rule="evenodd" fill="#4A494A" d="M-25.53-75.122c-1.98,0-3.931-0.525-5.636-1.526
	c-0.184-0.104-0.392-0.163-0.599-0.163c-0.109,0-0.211,0.016-0.314,0.045l-3.717,1.021l1.299-2.85
	c0.173-0.389,0.126-0.842-0.123-1.181c-1.377-1.92-2.109-4.184-2.109-6.55c0-6.176,5.025-11.205,11.199-11.205
	c6.181,0,11.208,5.029,11.208,11.205C-14.322-80.146-19.35-75.122-25.53-75.122L-25.53-75.122z M-25.53-99.902
	c-7.482,0-13.57,6.092-13.57,13.575c0,2.634,0.744,5.166,2.168,7.36l-2.063,4.54c-0.187,0.421-0.12,0.909,0.179,1.261
	c0.223,0.268,0.553,0.414,0.904,0.414c0.102,0,0.209-0.012,0.311-0.039l5.68-1.562c1.967,1.052,4.164,1.601,6.393,1.601
	c7.492,0,13.58-6.088,13.58-13.575C-11.95-93.81-18.038-99.902-25.53-99.902L-25.53-99.902z"/>
<path fill-rule="evenodd" clip-rule="evenodd" fill="#4A494A" d="M-20.309-84.293c-0.566-0.342-1.309-0.719-1.98-0.442
	c-0.515,0.206-0.838,1.012-1.168,1.425c-0.176,0.206-0.375,0.239-0.64,0.135c-1.934-0.769-3.406-2.055-4.473-3.827
	c-0.182-0.277-0.145-0.495,0.066-0.75c0.327-0.38,0.729-0.81,0.814-1.32c0.09-0.508-0.148-1.106-0.362-1.559
	c-0.271-0.582-0.569-1.412-1.149-1.736c-0.538-0.304-1.238-0.134-1.721,0.254c-0.816,0.668-1.217,1.714-1.203,2.755
	c0.002,0.296,0.037,0.593,0.107,0.876c0.164,0.686,0.486,1.327,0.843,1.935c0.265,0.458,0.558,0.901,0.874,1.334
	c1.033,1.4,2.315,2.618,3.802,3.529c0.741,0.453,1.543,0.852,2.372,1.127c0.927,0.309,1.751,0.625,2.76,0.436
	c1.048-0.199,2.081-0.85,2.501-1.86c0.127-0.299,0.188-0.635,0.117-0.954C-18.895-83.589-19.778-83.978-20.309-84.293
	L-20.309-84.293z"/>
<path fill="#4A494A" d="M-93.763-105.334c-11.067,0-20.069,9.001-20.069,20.068c0,11.069,9.002,20.075,20.069,20.075
	c11.066,0,20.07-9.006,20.07-20.075C-73.692-96.333-82.696-105.334-93.763-105.334L-93.763-105.334z M-93.763-62.779
	c-12.399,0-22.487-10.088-22.487-22.487c0-12.398,10.088-22.484,22.487-22.484c12.396,0,22.487,10.085,22.487,22.484
	C-71.275-72.867-81.366-62.779-93.763-62.779L-93.763-62.779z"/>
<path fill="#4A494A" d="M-108.447-77.493c0-0.156,0-0.311,0-0.465c0.187-0.221,0.389-0.405,0.695-0.464
	c2.42-0.482,4.039-2.024,5.26-4.051c1.027-1.704,0.864-2.09-1.028-2.762c-0.108-0.039-0.221-0.07-0.33-0.115
	c-0.406-0.167-0.813-0.344-1.148-0.64c-0.849-0.736-0.346-1.794,0.653-2.037c0.729-0.175,1.365,0.294,2.076,0.38
	c0.473,0.059,0.663-0.099,0.604-0.604c-0.151-1.296-0.146-2.607-0.087-3.91c0.118-2.49,1.342-4.383,3.414-5.612
	c3.027-1.795,6.194-1.818,9.241-0.03c1.902,1.118,3.131,2.806,3.4,5.074c0.172,1.473,0.102,2.95-0.014,4.425
	c-0.049,0.641,0.084,0.759,0.713,0.61c0.789-0.186,1.445-0.591,2.266-0.23c0.436,0.191,0.816,0.607,0.805,1.082
	c-0.01,0.328-0.197,0.629-0.443,0.844c-0.379,0.328-0.875,0.512-1.33,0.697c-0.355,0.145-0.725,0.257-1.07,0.42
	c-0.713,0.334-0.92,0.775-0.584,1.485c1.154,2.448,2.857,4.305,5.611,4.949c0.334,0.082,0.604,0.22,0.81,0.489
	c0,0.154,0,0.309,0,0.465c-0.261,0.533-0.729,0.829-1.261,1.028c-0.535,0.207-1.078,0.436-1.656,0.473
	c-0.795,0.051-1.217,0.396-1.34,1.226c-0.115,0.792-0.354,0.903-1.158,0.841c-0.188-0.016-0.379-0.051-0.568-0.082
	c-1.582-0.282-3.061-0.123-4.355,0.924c-0.258,0.201-0.534,0.375-0.811,0.552c-2.211,1.438-4.474,1.601-6.782,0.254
	c-0.631-0.369-1.227-0.79-1.837-1.19c-0.504-0.331-1.048-0.516-1.655-0.605c-0.956-0.142-1.875,0.07-2.804,0.174
	c-0.48,0.054-0.941-0.084-0.969-0.581c-0.065-1.191-0.796-1.485-1.8-1.593c-0.466-0.053-0.929-0.242-1.368-0.426
	C-107.78-76.703-108.219-76.987-108.447-77.493L-108.447-77.493z"/>
<path fill="#4A494A" d="M40.891-105.095c-11.064,0-20.068,9.002-20.068,20.068c0,11.066,9.004,20.072,20.068,20.072
	c11.068,0,20.067-9.006,20.067-20.072C60.958-96.093,51.959-105.095,40.891-105.095L40.891-105.095z M40.891-62.542
	c-12.4,0-22.483-10.088-22.483-22.485c0-12.4,10.083-22.485,22.483-22.485c12.403,0,22.483,10.085,22.483,22.485
	C63.374-72.63,53.294-62.542,40.891-62.542L40.891-62.542z"/>
<path fill="#4A494A" d="M44.905-84.572l-5.973,3.277c-0.26,0.138-0.493-0.051-0.493-0.346v-6.725c0-0.296,0.233-0.486,0.505-0.336
	l6.008,3.447C45.22-85.104,45.171-84.718,44.905-84.572L44.905-84.572z M54.358-88.438c0-3.187-2.589-5.771-5.774-5.771H33.602
	c-3.186,0-5.775,2.584-5.775,5.771v7.022c0,3.188,2.59,5.772,5.775,5.772h14.982c3.186,0,5.774-2.584,5.774-5.772V-88.438
	L54.358-88.438z"/>
<g>
	<path fill="#4A494A" d="M34.038,27.901c0,3.219-2.602,5.82-5.814,5.82H17.049c-3.213,0-5.819-2.602-5.819-5.82V16.727
		c0-3.211,2.606-5.818,5.819-5.818h11.175c3.213,0,5.814,2.607,5.814,5.818V27.901L34.038,27.901z M36.692,16.727
		c0-4.677-3.791-8.471-8.469-8.471H17.049c-4.68,0-8.473,3.794-8.473,8.471v11.175c0,4.687,3.793,8.479,8.473,8.479h11.175
		c4.678,0,8.469-3.792,8.469-8.479V16.727L36.692,16.727z M22.684,26.948c-2.454,0-4.445-1.999-4.445-4.45
		c0-2.454,1.991-4.452,4.445-4.452c2.45,0,4.445,1.998,4.445,4.452C27.129,24.949,25.134,26.948,22.684,26.948L22.684,26.948z
		 M22.684,15.556c-3.827,0-6.947,3.113-6.947,6.942c0,3.83,3.12,6.941,6.947,6.941c3.829,0,6.946-3.111,6.946-6.941
		C29.63,18.669,26.513,15.556,22.684,15.556L22.684,15.556z M30.03,13.436c-0.913,0-1.648,0.738-1.648,1.651
		c0,0.911,0.735,1.655,1.648,1.655c0.914,0,1.652-0.744,1.652-1.655C31.683,14.174,30.944,13.436,30.03,13.436L30.03,13.436z
		 M22.498,2.277c-11.146,0-20.212,9.073-20.212,20.221c0,11.15,9.065,20.216,20.212,20.216c11.145,0,20.217-9.065,20.217-20.216
		C42.715,11.351,33.643,2.277,22.498,2.277L22.498,2.277z M22.498,44.836c-12.316,0-22.339-10.021-22.339-22.338
		S10.182,0.164,22.498,0.164c12.321,0,22.343,10.018,22.343,22.334S34.819,44.836,22.498,44.836L22.498,44.836z"/>
</g>
</svg>
