<?xml version="1.0" encoding="utf-8"?>
<!-- Generator: Adobe Illustrator 16.0.0, SVG Export Plug-In . SVG Version: 6.00 Build 0)  -->
<!DOCTYPE svg PUBLIC "-//W3C//DTD SVG 1.1//EN" "http://www.w3.org/Graphics/SVG/1.1/DTD/svg11.dtd">
<svg version="1.1" id="Layer_1" xmlns="http://www.w3.org/2000/svg" xmlns:xlink="http://www.w3.org/1999/xlink" x="0px" y="0px"
	 width="300.02px" height="47.8px" viewBox="61.837 9.852 300.02 47.8" enable-background="new 61.837 9.852 300.02 47.8"
	 xml:space="preserve">
<g>
	<path d="M208.684,14.39c-4.75-2.738-4.771-2.753-5.596-4.404c2.532,0.976,4.958,1.994,7.448,2.823
		c0.803,0.267,1.846,0.262,2.648-0.008c2.486-0.834,4.911-1.854,7.472-2.846c-1.083,2.438-3.14,3.391-5.385,4.107
		c-0.001,0.155-0.001,0.31-0.003,0.464c2.037,0.528,4.06,1.134,6.122,1.528c0.476,0.091,1.202-0.437,1.618-0.868
		c1.085-1.124,2.061-2.354,3.082-3.539c0.3-0.346,0.605-0.685,1.161-0.831c-0.866,1.218-1.731,2.437-2.598,3.655
		c3.945-1.233,7.478-3.553,11.747-2.993c-3.784,0.433-6.215,1.318-5.92,2.321c-2.869-0.543-4.62,1.807-7.019,2.485
		c-0.004,0.152-0.009,0.304-0.013,0.456c1.295,0.296,2.576,0.68,3.886,0.873c4.121,0.606,8.239,1.275,12.383,1.653
		c2.546,0.232,5.139,0.029,7.707-0.076c2.599-0.107,5.191-0.319,7.785-0.51c6.164-0.452,12.145,0.37,17.911,2.613
		c2.053,0.799,3.819,0.524,5.01-0.902c0.687,0.062,1.104,0.187,1.491,0.121c2.453-0.413,4.891-0.932,7.353-1.27
		c0.692-0.095,1.454,0.301,2.186,0.464c1.176,0.262,2.352,0.52,3.572,1.016c-0.416,0-0.852,0.079-1.246-0.014
		c-2.084-0.493-4.159-0.984-6.449-0.549c0.701,0.967,1.316,1.816,1.933,2.666c-0.072,0.056-0.143,0.111-0.215,0.166
		c-0.113-0.079-0.273-0.132-0.332-0.241c-1.419-2.629-3.454-2.92-6.018-1.738c-1.218,0.561-2.563,0.844-3.859,1.606
		c3.127,1.245,6.208,2.629,9.395,3.698c3.807,1.276,7.67,2.43,11.574,3.364c3.735,0.895,7.554,1.455,11.341,2.127
		c1.542,0.275,2.735-0.564,3.516-2.028c0.813-1.523,1.823-2.941,2.747-4.405c0.116,0.073,0.23,0.145,0.347,0.217
		c-0.837,1.429-1.675,2.858-2.512,4.288c0.095,0.103,0.188,0.208,0.282,0.313c0.771-0.429,1.541-0.865,2.313-1.291
		c1.929-1.065,3.836-2.175,5.8-3.175c3.479-1.772,7.063-1.571,10.666-0.394c0.976,0.32,1.944,0.654,2.917,0.981
		c-0.042,0.116-0.081,0.231-0.123,0.347c-1.604-0.452-3.187-1.099-4.822-1.302c-1.767-0.221-3.585-0.005-5.381-0.021
		c-1.148-0.011-1.782,1.096-3.036,1.148c-1.104,0.047-2.186,1.007-3.246,1.618c-1.092,0.63-2.14,1.334-3.218,1.989
		c-1.026,0.622-2.065,1.223-3.046,2.187c2.738,0.366,5.479,0.715,8.214,1.099c5.525,0.775,11.039,1.628,16.574,2.319
		c1.755,0.219,3.324-0.576,4.939-2.128c-0.315,0.695-0.454,0.999-0.796,1.75c2.128-0.09,3.989-0.086,5.833-0.269
		c2.22-0.219,4.426-0.596,6.636-0.905c0.017,0.118,0.033,0.234,0.049,0.352c-2.336,0.354-4.671,0.709-7.007,1.064
		c-0.047,0.156-0.094,0.313-0.142,0.469c2.381,0.97,4.731,2.024,7.152,2.888c2.493,0.889,5.03,0.597,7.688-0.327
		c-1.319,1.357-3.194,1.623-5.826,1.31c-2.869-0.342-5.371-1.685-8-2.669c-2.589-0.97-5.155-1.776-7.984-0.995
		c4.952,1.78,9.19,4.516,12.818,8.334c3.513,3.696,5.365,8.068,6.244,12.972c-1.806-5.475-4.176-10.585-9.14-14.599
		c0.07,0.91,0.11,1.427,0.182,2.365c-0.287-0.547-0.48-0.738-0.463-0.906c0.21-1.848-1.026-2.686-2.35-3.52
		c-4.37-2.757-9.238-4.008-14.272-4.744c-1.931-0.283-3.874-0.484-5.812-0.722c-0.104,0.126-0.208,0.253-0.312,0.381
		c1.171,1.628,2.227,3.363,3.582,4.821c0.414,0.444,1.651,0.163,2.509,0.138c0.399-0.012,0.793-0.205,1.337-0.358
		c-0.26,0.524-0.428,0.86-0.646,1.299c-0.627-0.034-1.397-0.074-2.572-0.138c2.901,3.629,6.121,6.278,10.279,7.768
		c-0.076,0.133-0.151,0.267-0.226,0.4c-1.053-0.401-2.104-0.804-3.373-1.287c0.217,0.582,0.357,0.959,0.505,1.354
		c-0.075,0-0.178,0.03-0.211-0.005c-2.884-3.046-5.753-6.104-8.649-9.136c-0.263-0.274-0.695-0.389-1.049-0.576
		c-0.088,0.111-0.177,0.223-0.265,0.334c-0.561-1.323-1.13-2.642-1.676-3.97c-0.449-1.092-1.373-1.222-2.394-1.351
		c-6.862-0.861-13.724-1.748-20.58-2.664c-1.688-0.225-3.359-0.588-5.112-0.901c0.784,2.02,2.368,2.904,5.251,2.805
		c-0.639,0.248-0.926,0.359-1.223,0.474c0.006,0.083-0.021,0.225,0.019,0.248c2.54,1.46,5.028,3.027,7.654,4.313
		c1.317,0.645,2.854,0.664,4.087-0.579c0.332-0.336,0.819-0.521,1.373-0.606c-0.638,0.55-1.275,1.1-2.116,1.823
		c1.753,0.647,3.361,1.239,4.967,1.832c-0.023,0.105-0.049,0.212-0.072,0.316c-2.238-0.6-4.477-1.198-6.713-1.799
		c-0.024,0.087-0.051,0.173-0.074,0.259c1.521,1.676,3.042,3.351,4.563,5.026c-0.139,0.136-0.279,0.272-0.42,0.409
		c-3.183-3.69-6.585-7.095-11.609-9.179c0.242,1.167,0.414,1.995,0.62,2.983c-0.166-0.32-0.338-0.508-0.351-0.703
		c-0.151-2.424-1.906-3.436-3.799-4.287c-1.435-0.644-2.36-1.803-3.322-2.963c-0.349-0.42-0.865-0.804-1.379-0.967
		c-4.014-1.278-8.046-2.499-12.074-3.733c-0.184-0.056-0.381-0.068-0.95-0.164c1.109,2.567,1.886,5.013,4.145,6.671
		c-0.474-0.239-0.947-0.478-1.515-0.764c-0.047,0.53-0.084,0.954-0.091,1.026c-0.668-1.109-1.477-2.418-2.252-3.746
		c-0.369-0.633-0.989-1.32-0.954-1.952c0.104-1.768-1.021-2.19-2.311-2.7c-4.604-1.821-9.127-3.999-14.084-4.596
		c-4.117-0.495-8.296-0.483-12.651-0.706c0.752,1.577,3.392,2.971,6.319,3.593c-0.393,0.138-0.681,0.239-1.11,0.39
		c5.068,4.146,9.815,8.569,16.867,8.657c-0.046,0.17-0.093,0.34-0.138,0.513c-1.361-0.188-2.723-0.368-4.082-0.564
		c-2.648-0.38-4.833-1.816-6.955-3.266c-2.805-1.917-5.479-4.028-8.212-6.05c-0.189-0.141-0.406-0.241-0.95-0.558
		c0.94,2.058,1.733,3.793,2.526,5.53c-0.132,0.051-0.263,0.104-0.396,0.158c-0.368-0.724-0.737-1.447-1.244-2.44
		c-0.269,0.645-0.413,0.992-0.558,1.338c0.523-2.505-0.923-4.157-2.544-5.609c-0.653-0.585-1.743-1.088-2.576-1.009
		c-12.435,1.182-24.312-1.402-36.018-5.183c-1.083-0.35-2.019-0.37-3.105-0.008c-6.854,2.289-13.842,4.03-21.031,4.892
		c-0.328,0.039-0.659,0.045-1.075,0.074c0-0.609,0-1.125,0-1.611c4.046-0.755,8.024-1.498,12.001-2.241
		c0.015-0.172,0.029-0.345,0.044-0.518c-2.332-0.787-4.082-3.018-6.716-2.604c-0.281-1.306-1.546-1.137-2.368-1.445
		c-0.951-0.356-1.984-0.496-2.926-0.917c3.859,0.082,7.202,1.817,10.843,3.142c-0.876-1.23-1.751-2.461-2.629-3.691
		c0.057-0.06,0.115-0.12,0.171-0.179c0.329,0.333,0.67,0.654,0.984,1c1.147,1.269,2.187,2.659,3.471,3.769
		c0.546,0.471,1.645,0.606,2.408,0.458C205.13,15.572,206.739,14.97,208.684,14.39z"/>
	<path d="M215.009,14.39c4.751-2.738,4.771-2.753,5.597-4.404c-2.532,0.976-4.959,1.994-7.448,2.823
		c-0.803,0.267-1.846,0.262-2.648-0.008c-2.487-0.834-4.912-1.854-7.472-2.846c1.082,2.438,3.14,3.391,5.384,4.107
		c0.002,0.155,0.002,0.31,0.003,0.464c-2.037,0.528-4.06,1.134-6.122,1.528c-0.476,0.091-1.202-0.437-1.618-0.868
		c-1.085-1.124-2.061-2.354-3.083-3.539c-0.298-0.346-0.605-0.685-1.16-0.831c0.866,1.218,1.731,2.437,2.598,3.655
		c-3.946-1.233-7.477-3.553-11.748-2.993c3.784,0.433,6.215,1.318,5.92,2.321c2.87-0.543,4.62,1.807,7.019,2.485
		c0.004,0.152,0.009,0.304,0.014,0.456c-1.294,0.296-2.577,0.68-3.886,0.873c-4.121,0.606-8.24,1.275-12.384,1.653
		c-2.545,0.232-5.138,0.029-7.707-0.076c-2.598-0.107-5.191-0.319-7.786-0.51c-6.164-0.452-12.144,0.37-17.91,2.613
		c-2.054,0.799-3.819,0.524-5.01-0.902c-0.687,0.062-1.104,0.187-1.492,0.121c-2.453-0.413-4.89-0.932-7.352-1.27
		c-0.695-0.095-1.455,0.301-2.187,0.464c-1.174,0.262-2.351,0.52-3.571,1.016c0.416,0,0.852,0.079,1.246-0.014
		c2.083-0.493,4.16-0.984,6.45-0.549c-0.702,0.967-1.317,1.816-1.933,2.666c0.072,0.056,0.143,0.111,0.214,0.166
		c0.113-0.079,0.274-0.132,0.333-0.241c1.42-2.629,3.453-2.92,6.018-1.738c1.218,0.561,2.563,0.844,3.86,1.606
		c-3.128,1.245-6.209,2.629-9.395,3.698c-3.807,1.276-7.67,2.43-11.574,3.364c-3.737,0.896-7.555,1.458-11.343,2.13
		c-1.543,0.275-2.736-0.564-3.516-2.028c-0.813-1.524-1.823-2.941-2.747-4.405c-0.114,0.073-0.231,0.145-0.346,0.217
		c0.837,1.429,1.674,2.858,2.511,4.288c-0.094,0.103-0.189,0.209-0.282,0.313c-0.771-0.429-1.54-0.865-2.313-1.291
		c-1.93-1.064-3.836-2.175-5.8-3.175c-3.48-1.772-7.063-1.571-10.666-0.393c-0.975,0.319-1.944,0.654-2.917,0.981
		c0.041,0.115,0.082,0.231,0.122,0.347c1.605-0.452,3.188-1.099,4.822-1.302c1.769-0.221,3.586-0.005,5.383-0.021
		c1.147-0.011,1.781,1.096,3.034,1.149c1.104,0.046,2.187,1.007,3.246,1.618c1.092,0.629,2.142,1.334,3.219,1.989
		c1.025,0.622,2.065,1.223,3.046,2.187c-2.739,0.366-5.479,0.715-8.215,1.099c-5.524,0.776-11.039,1.628-16.574,2.319
		c-1.753,0.22-3.324-0.576-4.939-2.128c0.315,0.695,0.454,0.998,0.796,1.75c-2.127-0.09-3.989-0.086-5.833-0.268
		c-2.221-0.22-4.425-0.598-6.637-0.906c-0.015,0.118-0.032,0.234-0.047,0.352c2.335,0.355,4.67,0.71,7.006,1.064
		c0.046,0.156,0.093,0.313,0.14,0.469c-2.38,0.971-4.731,2.024-7.149,2.888c-2.496,0.89-5.032,0.598-7.69-0.327
		c1.319,1.358,3.194,1.624,5.826,1.31c2.87-0.343,5.371-1.684,8-2.669c2.588-0.97,5.155-1.775,7.984-0.995
		c-4.953,1.78-9.191,4.516-12.819,8.334c-3.513,3.696-5.363,8.067-6.242,12.973c1.805-5.476,4.174-10.586,9.138-14.601
		c-0.07,0.912-0.11,1.428-0.183,2.366c0.288-0.546,0.482-0.738,0.463-0.906c-0.208-1.847,1.027-2.686,2.35-3.52
		c4.371-2.757,9.239-4.007,14.273-4.744c1.931-0.283,3.874-0.484,5.811-0.722c0.104,0.127,0.208,0.253,0.312,0.38
		c-1.171,1.63-2.227,3.364-3.583,4.822c-0.414,0.445-1.651,0.163-2.51,0.138c-0.399-0.012-0.793-0.205-1.337-0.358
		c0.261,0.524,0.428,0.861,0.646,1.299c0.628-0.034,1.398-0.075,2.573-0.138c-2.901,3.629-6.12,6.279-10.279,7.769
		c0.075,0.132,0.15,0.266,0.226,0.398c1.052-0.4,2.102-0.803,3.372-1.286c-0.217,0.582-0.357,0.959-0.504,1.354
		c0.074,0,0.177,0.031,0.211-0.005c2.882-3.046,5.752-6.103,8.648-9.135c0.263-0.275,0.696-0.389,1.05-0.576
		c0.088,0.11,0.175,0.221,0.264,0.332c0.559-1.322,1.131-2.641,1.677-3.969c0.448-1.092,1.371-1.223,2.392-1.351
		c6.863-0.861,13.724-1.747,20.58-2.663c1.689-0.225,3.359-0.588,5.112-0.901c-0.785,2.021-2.367,2.904-5.251,2.806
		c0.639,0.247,0.928,0.359,1.224,0.474c-0.006,0.083,0.021,0.224-0.018,0.247c-2.541,1.461-5.03,3.027-7.655,4.313
		c-1.317,0.645-2.854,0.663-4.085-0.58c-0.334-0.337-0.821-0.52-1.374-0.606c0.636,0.55,1.273,1.1,2.116,1.824
		c-1.753,0.647-3.361,1.239-4.967,1.831c0.024,0.105,0.047,0.212,0.071,0.317c2.238-0.601,4.476-1.199,6.714-1.8
		c0.024,0.087,0.049,0.174,0.074,0.259c-1.521,1.676-3.042,3.352-4.564,5.026c0.14,0.136,0.28,0.273,0.421,0.409
		c3.182-3.69,6.583-7.094,11.608-9.179c-0.243,1.167-0.414,1.996-0.619,2.983c0.165-0.319,0.337-0.508,0.35-0.704
		c0.152-2.423,1.906-3.435,3.799-4.286c1.436-0.645,2.36-1.803,3.323-2.962c0.348-0.42,0.864-0.805,1.378-0.967
		c4.015-1.278,8.047-2.5,12.074-3.733c0.185-0.055,0.381-0.068,0.951-0.164c-1.11,2.567-1.886,5.013-4.145,6.671
		c0.474-0.239,0.948-0.478,1.515-0.764c0.046,0.53,0.083,0.954,0.09,1.026c0.669-1.108,1.477-2.418,2.251-3.746
		c0.37-0.632,0.991-1.32,0.954-1.952c-0.103-1.768,1.022-2.19,2.312-2.7c4.605-1.82,9.127-3.998,14.084-4.595
		c4.117-0.496,8.295-0.483,12.652-0.706c-0.753,1.577-3.393,2.971-6.318,3.592c0.39,0.138,0.679,0.239,1.107,0.39
		c-5.068,4.146-9.814,8.569-16.866,8.656c0.046,0.171,0.092,0.34,0.138,0.513c1.361-0.188,2.722-0.368,4.083-0.564
		c2.648-0.379,4.832-1.816,6.954-3.266c2.805-1.917,5.479-4.028,8.211-6.05c0.189-0.14,0.407-0.241,0.952-0.558
		c-0.94,2.058-1.734,3.793-2.527,5.53c0.132,0.051,0.263,0.104,0.396,0.158c0.368-0.724,0.737-1.448,1.244-2.44
		c0.27,0.645,0.414,0.992,0.558,1.338c-0.524-2.505,0.923-4.156,2.543-5.609c0.654-0.585,1.744-1.088,2.576-1.01
		c12.435,1.182,24.313-1.402,36.019-5.183c1.082-0.35,2.017-0.37,3.104-0.008c6.854,2.289,13.842,4.03,21.03,4.892
		c0.328,0.038,0.659,0.045,1.075,0.073c0-0.609,0-1.125,0-1.611c-4.047-0.755-8.023-1.498-12-2.241
		c-0.016-0.172-0.03-0.345-0.045-0.518c2.332-0.787,4.082-3.017,6.716-2.604c0.281-1.306,1.546-1.137,2.367-1.446
		c0.952-0.356,1.984-0.495,2.927-0.916c-3.86,0.082-7.202,1.817-10.844,3.142c0.875-1.23,1.751-2.461,2.628-3.692
		c-0.056-0.06-0.114-0.12-0.17-0.179c-0.329,0.333-0.671,0.654-0.984,1c-1.146,1.269-2.188,2.659-3.472,3.769
		c-0.546,0.471-1.644,0.606-2.407,0.458C218.562,15.572,216.956,14.97,215.009,14.39z"/>
</g>
</svg>
